<svg xmlns="http://www.w3.org/2000/svg" xmlns:xlink="http://www.w3.org/1999/xlink" viewBox="0 0 257.03 164.61"><defs><style>.cls-1{isolation:isolate;}.cls-2{fill:#d44b26;}.cls-3{fill:#f9c17d;}.cls-4{fill:#a2483c;}.cls-5{fill:url(#linear-gradient);}.cls-6{fill:#db8441;}.cls-16,.cls-6{mix-blend-mode:multiply;opacity:0.3;}.cls-7{fill:url(#linear-gradient-2);}.cls-8{fill:url(#linear-gradient-3);}.cls-9{fill:url(#linear-gradient-4);}.cls-10{fill:#e46137;}.cls-11{fill:url(#linear-gradient-5);}.cls-12{fill:#791401;}.cls-13{fill:url(#linear-gradient-6);}.cls-14{fill:#ed3c45;}.cls-15{fill:url(#linear-gradient-7);}.cls-16{fill:#ef9241;}.cls-17{fill:#ee5c28;}.cls-18{fill:url(#linear-gradient-8);}.cls-19{fill:#ba3b00;}.cls-20{fill:#f9d69a;}.cls-21{fill:#510;}.cls-22{fill:#ef9f63;}.cls-23{fill:#3f0700;}.cls-24{fill:#931b00;}.cls-25{fill:#ff833d;}.cls-26{fill:#f9cc89;}.cls-27{fill:#ff7d38;}.cls-28{fill:#f8d8a0;}.cls-29{fill:#ff6a25;}.cls-30{fill:url(#linear-gradient-9);}.cls-31{fill:#f96624;}.cls-32{fill:#f6c888;}.cls-33{fill:#edac73;}.cls-34{fill:#ed9d64;}.cls-35{fill:#de6e49;}.cls-36{fill:#f9bf81;}.cls-37{fill:#e39970;}</style><linearGradient id="linear-gradient" x1="-985.98" y1="154.16" x2="-852.11" y2="154.16" gradientTransform="translate(961.14 -326.35) rotate(-17.64)" gradientUnits="userSpaceOnUse"><stop offset="0" stop-color="#ff843d"/><stop offset="0.63" stop-color="#ff7028"/><stop offset="0.99" stop-color="#ff6219"/></linearGradient><linearGradient id="linear-gradient-2" x1="-953.22" y1="137.15" x2="-871.97" y2="137.15" gradientTransform="translate(961.14 -326.35) rotate(-17.64)" gradientUnits="userSpaceOnUse"><stop offset="0" stop-color="#931e0b"/><stop offset="1" stop-color="#681e0b"/></linearGradient><linearGradient id="linear-gradient-3" x1="-823.8" y1="159.52" x2="-823.8" y2="67.99" gradientTransform="translate(876.05 -106.58) rotate(-5.61)" gradientUnits="userSpaceOnUse"><stop offset="0" stop-color="#f8d59b"/><stop offset="0.99" stop-color="#f8d79d"/></linearGradient><linearGradient id="linear-gradient-4" x1="-1068.4" y1="86.72" x2="-1068.4" y2="85.77" gradientTransform="matrix(-1, 0, 0, 1, -1008.65, 0)" xlink:href="#linear-gradient-3"/><linearGradient id="linear-gradient-5" x1="-779.59" y1="39.77" x2="-779.59" y2="-16.63" gradientTransform="translate(824.46 88.02) rotate(3.97)" gradientUnits="userSpaceOnUse"><stop offset="0.01" stop-color="#f9d69a"/><stop offset="0.05" stop-color="#f9d79c"/><stop offset="0.62" stop-color="#f9e2b0"/><stop offset="1" stop-color="#f9e6b7"/></linearGradient><linearGradient id="linear-gradient-6" x1="-912.32" y1="137.79" x2="-912.32" y2="125.54" gradientTransform="matrix(-0.78, 0.63, 0.63, 0.78, -765.51, 535.13)" gradientUnits="userSpaceOnUse"><stop offset="0" stop-color="#ff695c"/><stop offset="0.42" stop-color="#fa6259"/><stop offset="1" stop-color="#ed4f50"/></linearGradient><linearGradient id="linear-gradient-7" x1="-766.68" y1="32.19" x2="-766.68" y2="-17.31" gradientTransform="translate(824.46 88.02) rotate(3.97)" gradientUnits="userSpaceOnUse"><stop offset="0.01" stop-color="#ff6219"/><stop offset="0.37" stop-color="#ff7028"/><stop offset="1" stop-color="#ff843d"/></linearGradient><linearGradient id="linear-gradient-8" x1="-820.15" y1="21.25" x2="-806.67" y2="21.25" gradientTransform="translate(824.46 88.02) rotate(3.97)" gradientUnits="userSpaceOnUse"><stop offset="0" stop-color="#931b00"/><stop offset="0.11" stop-color="#8a1900"/><stop offset="0.4" stop-color="#761400"/><stop offset="0.69" stop-color="#6b1200"/><stop offset="1" stop-color="#671100"/></linearGradient><linearGradient id="linear-gradient-9" x1="-1020.58" y1="73.27" x2="-1020.58" y2="67.31" gradientTransform="matrix(-1, 0.1, 0.1, 1, -981.36, 76.08)" gradientUnits="userSpaceOnUse"><stop offset="0" stop-color="#901100"/><stop offset="0.59" stop-color="#6b1100"/><stop offset="1" stop-color="#510"/></linearGradient></defs><g class="cls-1"><g id="Layer_2" data-name="Layer 2"><g id="_ÎÓÈ_1" data-name="—ÎÓÈ_1"><path class="cls-2" d="M170,114.94c-.48,9.92,12.43,25.67,32.37,26,14.2.25,21.47-5.8,36.05-4.57,5.8.67,12.91-3.17,10.82-7.55-2.51-5.24-14.82-9-26.95-7.86-3.49-9.3-5.61-17.27-14.54-25.31C193,82.4,170.74,99.73,170,114.94Z"/><path class="cls-2" d="M47,86.8c-13.16,2.54-26.37,6.63-35.67,5.81C4.13,96,3.89,102.26,10.21,105s22.6,13.44,39.23,11.2C66.28,114,63.87,83.55,47,86.8Z"/><path class="cls-3" d="M10.21,105c.89.39,2,.93,3.24,1.58A28.32,28.32,0,0,0,29.8,95.49a5.84,5.84,0,0,0-.35-4.89c-6.78,1.43-13,2.46-18.14,2C4.13,96,3.89,102.26,10.21,105Z"/><path class="cls-3" d="M7.75,94.14C4,94.08,1.19,93.34.58,91.41S1.13,88.56,4.76,88s6.86,2.46,7.48,4.38S11.42,94.2,7.75,94.14Z"/><path class="cls-3" d="M8.12,98.62c-3.63,1.13-6.6-1.77-7.23-3.74s.91-4,4.7-4.14,6.68,1.72,7.31,3.7S11.76,97.5,8.12,98.62Z"/><path class="cls-3" d="M8,101.76c-3.77.43-5.36.13-6.41-3.36-.6-2,1.82-3.6,5.59-4s6,.57,6.1,2.65S11.73,101.34,8,101.76Z"/><path class="cls-3" d="M11.67,105.64C8,106.7,3.4,105,2.83,103s1.77-3.78,5.44-4.8c1.25-.35,4-.85,5,1C14.5,101.61,14.16,104.91,11.67,105.64Z"/><path class="cls-4" d="M1.12,90.75C.27,91.18-.5,89.36.41,89.1s2.7-.24,2.92.46S1.92,90.34,1.12,90.75Z"/><path class="cls-4" d="M1.17,95.18c-.91.27-1.55-1.65-.64-1.91s3.09-.06,3.32.63S2.08,94.92,1.17,95.18Z"/><path class="cls-4" d="M2,98c-.9.27-1.61-1.58-.7-1.84s3,.06,3.21.76S2.87,97.75,2,98Z"/><path class="cls-4" d="M3.18,102.94c-.91.26-1.63-1.6-.72-1.87s2.54.26,2.76,1S4.09,102.67,3.18,102.94Z"/><path class="cls-5" d="M90.81,63.43s5.51-1.46,17.8.43c6.34,1,14.82,5.49,20.8,6.91,7,1.66,16.23,1,18.92,1.26,9.47,1,31.92,4,42.49,10.49,12.59,7.67,21.81,37.78-1.84,47.1-26.68,10.51-86.58,15.19-111.58-3.07C49.21,106,73.09,73.13,90.81,63.43Z"/><path class="cls-6" d="M190.82,82.52a48.61,48.61,0,0,0-10.37-4.4c6.38,10.58,6.7,23.53-3.47,32.65C147.45,138.36,102.6,132,68.54,117.39a34.3,34.3,0,0,0,8.86,9.16c25,18.26,84.9,13.58,111.58,3.07C212.63,120.3,203.41,90.19,190.82,82.52Z"/><path class="cls-3" d="M76.69,125.66c1.4,5.17,7.46,13,17.8,13.47-.13-.76-.42-3.82-.41-4.27,1.33,1.42,13.47,8.32,12.22,3.11,3.18,3.72,12.78,5.31,18.45,4.53-.71-.79-2.09-2.76-2.15-3.85,4.2,2.66,17.25,4,24.15,3.21-.72-1.68-2.41-2.31-2.05-3.32,5.49.8,13.38.77,27-1,7.07-.91,2.82-16.45-1.74-11-1.36,1.62-22,7.51-32.34,7.75-50.47,1.15-52-5.79-56.51-8.92Z"/><path class="cls-7" d="M112.4,92.76c-1.64,7.62-7.79,10.59-13.66,14.49,10.55,2.5,19.57-5.35,23.33-6.41,3.38-.94,10.6,7.79,29.3,4.38,13.92-2.54,22.55-18.76,22.82-28.83A213.18,213.18,0,0,0,148.33,72c-2.69-.3-11.9.4-18.92-1.26-6-1.42-14.46-5.94-20.8-6.91A67.54,67.54,0,0,0,94.33,63C104.44,69.57,113.35,79.59,112.4,92.76Z"/><path class="cls-3" d="M194.9,85.79c-7.06-1.87-7.57,8.89-7.06,29.76.06,2.74,11.46,10.89,11.27,13.63,1.57-1,3.69-3.72,5.38-1.52.35-5.3.58-8.7.58-8.7l2.49,3c.93-3.84-.17-6.17-1.22-8.61.69-.29.89.64,1.58,1.64a12.05,12.05,0,0,0-1.37-10.12s1.48,1.76,2.58,2.9c1.29-5.59-2.55-10.06-3.37-11.66A12.66,12.66,0,0,1,208,98C207.56,90.9,198.88,87.71,194.9,85.79Z"/><path class="cls-8" d="M101,54.47C99.9,46.21,87.48,43.3,83.78,39.59c0,0-45.65,10.81-46.07,17.88s-8.41,18-8.41,18,1.1,1.74,6-.78c-5.49,8-2.13,13.78-2.68,21.19,2.29-2.51,3.44-4.05,3.9-6.87-.27,2.48-1.2,7-1,10,.25,3.81,3.51,7.77,3.51,7.77a15.34,15.34,0,0,1,1-6.53c-1.18,5.18,8.78,19.61,13.55,24.36a27.46,27.46,0,0,0-.93-6c5.71,6.54,21,13.83,21,13.83s-4.68-9.62-4.77-19.27c-.13-12.57,1-10.1,8.13-17.09,3.63-3.58,4.83-6.14,5.14-7.79a27.43,27.43,0,0,1-.33,4c5.16-4,8.06-16,8.06-16a38.81,38.81,0,0,0,.8,4.37c1.79-3,2.23-5,2.21-6.42.15.58.32,1.27.5,2.08C97,70.74,101,61.74,96.2,54.09,96.77,51.41,101.46,56.59,101,54.47Z"/><path class="cls-3" d="M59.86,86.72c.54,1,2,1.07,2.8,1.07,1-7.07-8.08-9.09-7.07-13.13,2.61-9.58,8.23-19.16,5.18-28.74,11.51-3.61,23-6.33,23-6.33C87.48,43.3,99.9,46.21,101,54.47c.49,2.12-4.2-3.06-4.77-.38,4.81,7.65.83,16.65-2.75,22.35-.18-.81-.35-1.5-.5-2.08,0,1.39-.42,3.47-2.21,6.42a38.81,38.81,0,0,1-.8-4.37s-2.9,12-8.06,16a27.43,27.43,0,0,0,.33-4c-.31,1.65-1.51,4.21-5.14,7.79-7.09,7-8.26,4.52-8.13,17.09.09,9.65,4.77,19.27,4.77,19.27s-3.47-1.66-7.72-4.1a52.07,52.07,0,0,1-7.37-10.38C53.72,108.27,62.15,97.51,59.86,86.72Z"/><path class="cls-9" d="M59.86,86.72a1.88,1.88,0,0,1-.23-1C59.72,86.09,59.79,86.4,59.86,86.72Z"/><path class="cls-10" d="M51.58,18.48S81.05,8.81,85.86,6.3,96.41-3,98.79,1.5,99.2,32.58,71,33,51.58,18.48,51.58,18.48Z"/><path class="cls-11" d="M7.46,47.31s14.89.28,18.14-2.62,5.06-17.5,10.85-21.93c7.88-6,21.8-7.43,35.36,1.1S89.59,59.5,75.93,68.33C59,79.3,17.6,72.47,15.69,63.48,12.38,63,4.47,57,7.46,47.31Z"/><path class="cls-3" d="M71.81,23.86c-.15-.1-.31-.19-.47-.28C73.6,39.51,73.73,68,52.18,74c9.08-.18,17.89-1.84,23.75-5.64C89.59,59.5,85.38,32.39,71.81,23.86Z"/><path class="cls-3" d="M32.79,65c2.27-2.84,1.63-11.27-3.47-8.33-6.2,3.57-12.91,6.17-18.72,3.79a10.37,10.37,0,0,0,5.09,3c.5,2.32,3.63,4.5,8.3,6.27C27.23,69.19,30.31,68.11,32.79,65Z"/><path class="cls-12" d="M31.2,59.42s-2.13,7.43-7.37,7.64c-2.24.09-5.4-.1-5.4-.1S15.57,65,15.3,63.87c1.22-.21,3.61.77,8.81,0A10.79,10.79,0,0,0,31.2,59.42Z"/><path class="cls-13" d="M29,62.29s9.75,3.63,4.23,7.12-9.85-1.51-13.15-5.08A74.43,74.43,0,0,0,29,62.29Z"/><path class="cls-14" d="M29.81,67.23s-1.46-3.71-3-3.53-2.88.34-2.88.34S27.23,65.68,29.81,67.23Z"/><path class="cls-15" d="M42.83,60.64C55.64,69.45,73.8,70.8,82.49,58c7.42-10.94-1.41-33-11.86-36.92-16.73-6.22-22.43-3.65-29.89-.81C29.94,31.06,29.6,51.19,42.83,60.64Z"/><path class="cls-16" d="M70.63,21.08c-2.1-.78-4-1.42-5.8-1.94,7.27,19,6.91,35.15-1.88,48.28,7.7.16,14.94-2.65,19.54-9.42C89.91,47.06,81.08,25,70.63,21.08Z"/><path class="cls-17" d="M48.83,48.92c3.28-5.22.72-16.48-4.16-16.34-7.42.22-12.91,12.58-7.85,18C40.15,54.19,45.73,53.85,48.83,48.92Z"/><path class="cls-18" d="M10.2,60.06c-4-.61-7.41-10-3.7-12.4,5.13-3.35,12.22-1,12.22-1S15.82,56.74,10.2,60.06Z"/><path class="cls-19" d="M45.61,44.82s-.67-4.67-3.92-5S37.43,44,37.43,44s1.71-2.75,4.43-2.44S45.61,44.82,45.61,44.82Z"/><path class="cls-20" d="M40.63,32.54c.19,1.14,2.37,1.74,3.92,1.49S47.2,32.64,47,31.5s-1.59-1.87-3.14-1.62S40.45,31.39,40.63,32.54Z"/><path class="cls-21" d="M20.35,64.74c.51,0,1,0,1.6-.06,8.13-.53,9.24-4.46,9.29-4.62a.73.73,0,0,0-.52-.89.72.72,0,0,0-.89.52s-1,3.08-8,3.54C12,63.88,9.94,58,9.85,57.75a.72.72,0,0,0-.91-.48.73.73,0,0,0-.48.92C8.55,58.47,10.64,64.74,20.35,64.74Z"/><path class="cls-22" d="M18.54,56.1a.65.65,0,1,1-1.27-.28.64.64,0,0,1,.77-.5A.65.65,0,0,1,18.54,56.1Z"/><path class="cls-22" d="M19.82,60.74a.65.65,0,0,1-.78.5.67.67,0,0,1-.5-.78.65.65,0,0,1,.78-.49A.64.64,0,0,1,19.82,60.74Z"/><path class="cls-22" d="M21.94,58.11a.65.65,0,1,1-.5-.78A.65.65,0,0,1,21.94,58.11Z"/><path class="cls-22" d="M16.19,59.48a.66.66,0,0,1-.78.5.66.66,0,1,1,.78-.5Z"/><path class="cls-21" d="M29.71,57.78s-.5,1.45.65,2,2.42-.63,2.42-.63Z"/><path class="cls-23" d="M10.11,52.56c-2.23,2.07-.7,5.14.93,6.94a20.22,20.22,0,0,0,5.36-7C14.61,51.64,11.92,50.88,10.11,52.56Z"/><path class="cls-24" d="M7.17,49.7c.35-.6,1.17-2.6,4.73-2.45s5.85,1.59,2.24,2S6.83,50.27,7.17,49.7Z"/><path class="cls-25" d="M64.83,19.14s31-1.86,36.25-3.06,12.57-6.3,13.74-1.35S101.52,48,75.89,43.58C54.7,39.93,64.83,19.14,64.83,19.14Z"/><path class="cls-25" d="M69.37,40.84l.07.69,0,0c0-.11,0-.23-.08-.34S69.34,41,69.37,40.84Z"/><path class="cls-16" d="M68.12,28.16c20.75.87,35.44-5.11,44.57-15.5a2.41,2.41,0,0,1,2.13,2.07c1.16,5-13.3,33.26-38.93,28.85a22.36,22.36,0,0,1-6.45-2S59.63,34.7,68.12,28.16Z"/><path class="cls-25" d="M69.39,41.51l-.12-.07c0-.09,0-.18,0-.27C69.34,41.28,69.36,41.4,69.39,41.51Z"/><path class="cls-20" d="M68.8,29.91s10.85,2,27.31-2.52C105,25,109.73,17.22,110.65,20.67S98.78,44.15,77,41.45C59,39.22,68.8,29.91,68.8,29.91Z"/><path class="cls-3" d="M67.46,38.17c-3.67-3.53,1.34-8.26,1.34-8.26s7,1.27,18.32-.56A22.35,22.35,0,0,1,67.46,38.17Z"/><path class="cls-26" d="M67.46,38.17a22.35,22.35,0,0,0,19.66-8.82,88.07,88.07,0,0,0,9-2,21.9,21.9,0,0,0,3.11-1.11c-2.76,8.33-11.3,14.2-20.14,15.36-.69,0-1.39-.1-2.1-.19C71.81,40.81,68.94,39.59,67.46,38.17Z"/><path class="cls-27" d="M67.37,99.81C55.17,106.7,33.46,119.71,24,122c-6,5.79-4.14,12,3,12.66s34.85,3.6,50.14-5C97.72,118,83,91,67.37,99.81Z"/><path class="cls-28" d="M44.45,112.74C36.38,117.09,28.67,120.86,24,122c-6,5.79-4.14,12,3,12.66,1.54.13,4,.38,7.15.59A36.6,36.6,0,0,0,46,117.54,7.15,7.15,0,0,0,44.45,112.74Z"/><path class="cls-6" d="M20.4,128.74c-.08,3.12,2.29,5.54,6.6,5.91,7.18.62,34.85,3.6,50.14-5,5-2.83,7.93-6.59,9.25-10.52C66,129.85,42.68,132.65,20.4,128.74Z"/><path class="cls-28" d="M19.5,125.17c-3.58,1.55-6.59,2.06-8,.5s-.71-3,2.49-5.1,7.59-.63,9,.93S23,123.64,19.5,125.17Z"/><path class="cls-28" d="M21.79,129.27c-3,2.64-7,1.17-8.51-.44s-.87-4.2,2.69-6,7.1-1.24,8.56.36S24.77,126.63,21.79,129.27Z"/><path class="cls-28" d="M23,132.33c-3.41,2-5,2.44-7.56-.43-1.43-1.63.18-4.22,3.58-6.25s5.93-2,7-.11S26.39,130.3,23,132.33Z"/><path class="cls-28" d="M28.2,134.42c-3,2.58-8.14,3-9.54,1.33s0-4.36,3.09-6.91c1.05-.87,3.43-2.54,5.16-1.21C29.15,129.35,30.25,132.65,28.2,134.42Z"/><path class="cls-4" d="M11.71,124.8c-.62.78-2.13-.62-1.38-1.26s2.46-1.4,3-.83S12.3,124.07,11.71,124.8Z"/><path class="cls-4" d="M13.68,129c-.75.65-2.19-.9-1.44-1.54s2.92-1.4,3.44-.84S14.43,128.36,13.68,129Z"/><path class="cls-4" d="M15.66,131.35c-.75.65-2.22-.81-1.47-1.45s2.88-1.23,3.39-.66S16.41,130.7,15.66,131.35Z"/><path class="cls-4" d="M19,135.52c-.76.64-2.25-.82-1.5-1.47s2.53-.85,3.05-.28S19.7,134.87,19,135.52Z"/><path class="cls-29" d="M155,124.7c-2.16,9.69,7.9,27.41,27.49,31.13,13.94,2.66,26.26,3.13,37-.66,5.6,1.65,10.73,2,9.41-2.68-1.59-5.59-11.28-12-23.43-13-1.85-9.76-10.13-29.69-17.56-39.12C175.61,84.82,158.25,109.84,155,124.7Z"/><path class="cls-30" d="M46.35,48.71c-.15-1.49-1.59-5.13-4.88-5.43s-5.45,2.8-5,4.87a5.05,5.05,0,0,1,5.25-1.93A14.5,14.5,0,0,1,46.35,48.71Z"/><path class="cls-31" d="M177.45,77.55c11.92,3,28.75.19,35.34,13.11,1.67,3.25,2.27,6.92,2.76,10.51a17.52,17.52,0,0,0-2.8-2.37c.19,3-.71,5.7-.29,8.76-2.71-2.19-6-5.29-6.24-9.06a12.1,12.1,0,0,0,1,7.18c-5.92-1.54-13.45-7.42-16.3-12.37-2.17-3.77-4-7.72-7.39-10.69Z"/><path class="cls-32" d="M46.88,79.08c.37-.3,1.12,0,.9.52-1.15,2.9-3.07,6-2.45,9.19l.25-.15a1.35,1.35,0,0,1,2,1.17c-.52,4.27,1.42,7.92,2.36,12a.45.45,0,0,1-.74.43,15.06,15.06,0,0,1-4.35-9.86,1.45,1.45,0,0,1-1.4-1C42,87.53,43.65,81.69,46.88,79.08Z"/><path class="cls-33" d="M228.85,120.85c4.57-.26,15.06,2.15,17.86,3.3,4.69,1.94,10.26,12.58,10.32,14.74,0,1.8-1.26,3.54-3,2.27.13,1.77-1.64,2.65-3.53,1.64-1.64,3-6.53,1-7.36.17-1.16-1.18-2.19-6.31-2.19-6.31l-4.82-.2a11.27,11.27,0,0,1-1.54-.07h-.13S225.51,125.84,228.85,120.85Z"/><path class="cls-34" d="M246.41,124l.3.11c4.69,1.94,10.26,12.58,10.32,14.74,0,1.8-1.26,3.54-3,2.27.13,1.77-1.64,2.65-3.53,1.64a3.08,3.08,0,0,1-2.61,1.59C242.93,137.65,239.41,127.37,246.41,124Z"/><path class="cls-35" d="M245.33,132.15c.54,1.91,2.2,3.12,3.71,2.7s2.3-2.32,1.76-4.23-2.19-3.12-3.7-2.7S244.8,130.23,245.33,132.15Z"/><path class="cls-35" d="M247.09,140.6c.47,1.18,1.38,1.93,2,1.66s.82-1.43.35-2.61-1.38-1.93-2.05-1.67S246.62,139.42,247.09,140.6Z"/><path class="cls-35" d="M250.27,139.5c.47,1.18,1.39,1.92,2.06,1.66s.82-1.44.35-2.62-1.39-1.93-2.05-1.66S249.81,138.31,250.27,139.5Z"/><path class="cls-35" d="M253,138.14c.46,1.18,1.38,1.93,2,1.66s.82-1.43.35-2.62-1.39-1.92-2.05-1.66S252.49,137,253,138.14Z"/><path class="cls-20" d="M209,139.86s18.75,3.23,21.78,4.48c4.68,1.94,10.26,12.58,10.32,14.74,0,1.8-1.27,3.54-3,2.27.12,1.77-1.64,2.65-3.54,1.64-1.64,3-6.52,1-7.36.17-1.15-1.18-2.19-6.31-2.19-6.31l-16.65.68C208.34,157.82,204.67,140.47,209,139.86Z"/><path class="cls-36" d="M230.42,144.23l.31.11c4.68,1.94,10.26,12.58,10.32,14.74,0,1.8-1.27,3.54-3,2.27.12,1.77-1.64,2.65-3.54,1.64a3.05,3.05,0,0,1-2.61,1.59C226.94,157.84,223.42,147.56,230.42,144.23Z"/><path class="cls-37" d="M229.35,152.34c.53,1.91,2.19,3.12,3.7,2.7s2.3-2.32,1.77-4.23-2.19-3.12-3.7-2.7S228.82,150.42,229.35,152.34Z"/><path class="cls-37" d="M231.1,160.79c.47,1.18,1.39,1.93,2.06,1.66s.82-1.43.35-2.61-1.39-1.93-2-1.67S230.64,159.61,231.1,160.79Z"/><path class="cls-37" d="M234.29,159.68c.47,1.19,1.39,1.93,2.05,1.67s.82-1.44.36-2.62-1.39-1.93-2.06-1.66S233.82,158.5,234.29,159.68Z"/><path class="cls-37" d="M237,158.33c.47,1.18,1.39,1.93,2.05,1.66s.83-1.43.36-2.61-1.39-1.93-2-1.67S236.5,157.15,237,158.33Z"/></g></g></g></svg>