<svg xmlns="http://www.w3.org/2000/svg" xmlns:xlink="http://www.w3.org/1999/xlink" viewBox="0 0 176.81 104.3"><defs><style>.cls-1{isolation:isolate;}.cls-2{fill:url(#linear-gradient);}.cls-3{fill:url(#linear-gradient-2);}.cls-4{fill:#f9c17d;}.cls-5{fill:#ec5a2b;}.cls-6{fill:url(#linear-gradient-3);}.cls-7{fill:#ff7d38;}.cls-8{fill:#ef9241;mix-blend-mode:multiply;opacity:0.3;}.cls-9{fill:#ee5c28;}.cls-10{fill:#510;}.cls-11{fill:#f9d69a;}.cls-12{fill:url(#linear-gradient-4);}.cls-13{fill:#3f0700;}.cls-14{fill:#931b00;}.cls-15{fill:#ef9f63;}.cls-16{fill:#f8e0ad;}.cls-17{fill:url(#linear-gradient-5);}.cls-18{fill:url(#linear-gradient-6);}.cls-19{fill:#f55c23;}.cls-20{fill:#f8d8a0;}.cls-21{fill:#a2483c;}.cls-22{fill:#ff6a25;}.cls-23{fill:#ff7f31;}.cls-24{fill:#e95e24;}</style><linearGradient id="linear-gradient" x1="11.11" y1="47.7" x2="172.91" y2="47.7" gradientUnits="userSpaceOnUse"><stop offset="0.01" stop-color="#ff6219"/><stop offset="0.37" stop-color="#ff7028"/><stop offset="1" stop-color="#ff843d"/></linearGradient><linearGradient id="linear-gradient-2" x1="38.63" y1="35.72" x2="142.03" y2="35.72" gradientUnits="userSpaceOnUse"><stop offset="0" stop-color="#931e0b"/><stop offset="1" stop-color="#681e0b"/></linearGradient><linearGradient id="linear-gradient-3" x1="195.26" y1="115.62" x2="195.26" y2="46.15" gradientTransform="translate(-70.4 -22.45) rotate(0.93)" gradientUnits="userSpaceOnUse"><stop offset="0.01" stop-color="#f9d69a"/><stop offset="0.05" stop-color="#f9d79c"/><stop offset="0.62" stop-color="#f9e2b0"/><stop offset="1" stop-color="#f9e6b7"/></linearGradient><linearGradient id="linear-gradient-4" x1="2111.63" y1="841.55" x2="2129.24" y2="841.55" gradientTransform="translate(-2099.93 695.78) rotate(-37.11)" gradientUnits="userSpaceOnUse"><stop offset="0" stop-color="#931b00"/><stop offset="0.11" stop-color="#8a1900"/><stop offset="0.4" stop-color="#761400"/><stop offset="0.69" stop-color="#6b1200"/><stop offset="1" stop-color="#671100"/></linearGradient><linearGradient id="linear-gradient-5" x1="121.49" y1="69.16" x2="121.49" y2="60.73" gradientUnits="userSpaceOnUse"><stop offset="0" stop-color="#901100"/><stop offset="0.59" stop-color="#6b1100"/><stop offset="1" stop-color="#510"/></linearGradient><linearGradient id="linear-gradient-6" x1="99.45" y1="77.91" x2="99.45" y2="70.88" xlink:href="#linear-gradient-5"/></defs><g class="cls-1"><g id="Layer_2" data-name="Layer 2"><g id="_ÎÓÈ_1" data-name="—ÎÓÈ_1"><path class="cls-2" d="M11.24,53.64c.7-10.46-2.81-33,46.82-42.42,67.66-12.8,103.13,2.19,110.45,24.13,7.38,22.15,9.31,46.15-25.6,49.56S58.42,89.3,46.35,88.75,9.05,86.56,11.24,53.64Z"/><path class="cls-3" d="M112.55,59.49C130.1,49.84,137.12,31.08,142,12.17c-18.41-6.57-46.16-8.11-84-.95a119.37,119.37,0,0,0-19.43,5.21c6.66,8.24,7.44,22.56,13.57,31C65.37,66.08,91.7,69.37,112.55,59.49Z"/><path class="cls-4" d="M21.48,26c4.39,16.46,5.66,19.62,4.94,47.73C26.3,78.5,25.6,82,21,85.55c-2.72-1.72-2.62.31-5.54,4.12a40.07,40.07,0,0,1-4.93-11s-.85,4.42-2.15,6C6.1,81,6.13,74.82,7.94,70.6c-1.41.83-1.85,4.71-3,6.44C.43,65.43,6.85,60.13,6.85,60.13s-2.73,2.76-4.62,4.72C0,55.2,7.09,47.1,8.5,44.34,7.19,45,7.28,45.3,6,46.48,6.61,34.27,14.62,29.35,21.48,26Z"/><path class="cls-5" d="M102.55,34.71c-.15-3,9.19-12.14,14.44-17.28S127.37,7.14,131.86,2.65c5.76-5.76,10.2-1.89,10.53,9.2.24,7.94-5.37,25.17-18.46,32.06S102.75,38.75,102.55,34.71Z"/><path class="cls-6" d="M134.07,90.27C158.43,72.36,164,55.15,153.68,40.56c-7.1-10-25.09-14.44-34.13-13.63-6.11.54-14,2.68-22.25,11.67-5.33,5.77-11,9.6-7.53,21.83,2.1,7.34,5.7,16.12,6.83,21.29-4.1,5.45.51,9.34,4.13,12.94,1.19,1.18,3.56-.5,6.53-.23C113.21,98.37,127.47,95.12,134.07,90.27Z"/><path class="cls-4" d="M119.4,79.09c-8.34-1,.21,12.92-21,13.27.75.79,1.54,1.55,2.29,2.3,1.19,1.18,3.56-.5,6.53-.23,2.63,1.74,6.9,2.08,11.41,1.48C124.7,90.28,124.11,79.63,119.4,79.09Z"/><path class="cls-4" d="M153.68,40.56c-5.38-7.6-17-12-26.26-13.29,10.9,8.61,14,25.18,14.26,38.26A41.54,41.54,0,0,1,137,88C158.86,70.92,163.56,54.54,153.68,40.56Z"/><path class="cls-7" d="M104.77,72.49c-.76-15.06-7.53-30.21,5.68-41-8.2,10.9-5.42,25,2.42,36.14,3.93,5.08,9.88,8.87,19,4.33,16.52-8.24,18.81-18.6,23.37-28.93-.47-.82-1-1.63-1.55-2.44-7.1-10-25.09-14.44-34.13-13.63-6.11.54-14,2.68-22.25,11.67-5.33,5.77-11,9.6-7.53,21.83,2.1,7.34,5.7,16.12,6.83,21.29l0,0C101,79.55,105.51,77.38,104.77,72.49Z"/><path class="cls-8" d="M155.23,43c-.47-.82-1-1.63-1.55-2.44-6.39-9-21.6-13.5-31.16-13.72,12.36,9,20.25,24.07,18.94,38.87C149.59,58.75,151.76,50.87,155.23,43Z"/><path class="cls-9" d="M118.27,70.74c-5-3.26-7.85-16.62-1.15-19.41s16.47,7.58,14.25,14.5C129.9,70.37,123.05,73.83,118.27,70.74Z"/><path class="cls-9" d="M103.9,64.17c-3-3.23-7-5-10.05-2.66a6.32,6.32,0,0,0-2.19,4.91c1.72,5.08,3.63,10.21,4.61,14a6.61,6.61,0,0,0,1,1c4.18-2.09,8.19-4.29,7.49-8.92C104.63,69.71,104.29,66.93,103.9,64.17Z"/><path class="cls-10" d="M103.52,95.76a17.84,17.84,0,0,1-3.5-.31.8.8,0,0,1-.61-1,.79.79,0,0,1,1-.61c.08,0,8.66,1.78,15.38-4.26a9.76,9.76,0,0,0,2.87-7.43.8.8,0,0,1,1.6-.14c0,.22.41,5.33-3.41,8.76A19.65,19.65,0,0,1,103.52,95.76Z"/><path class="cls-11" d="M119.63,49c.71,1-.21,2.89-2,4.2s-3.94,1.57-4.65.56.2-2.89,2-4.2S118.91,48,119.63,49Z"/><path class="cls-11" d="M97.58,59.93c.45,1-1,2.69-2.41,3.32s-2.91.28-3.37-.75.31-2.38,1.71-3S97.11,58.9,97.58,59.93Z"/><path class="cls-12" d="M89.37,88.18c-.61-5.38,11-9.49,12.8-10.05s.58,5.69.14,12.2c-.25,3.64.33,5.88-3.55,5.14C96.11,95,90,93.62,89.37,88.18Z"/><path class="cls-13" d="M97,89.91c.37,2,2.88,3,5.2,3.28.07-.8.07-1.76.14-2.86.14-2,.35-4,.53-5.84C99.81,85.29,97,86.19,97,89.91Z"/><path class="cls-14" d="M91,89.53c-.14-.75-.9-3,2.14-5.43s6-2.89,3.32.07S91.13,90.24,91,89.53Z"/><path class="cls-15" d="M109.61,83.66a.7.7,0,0,1-.29,1,.71.71,0,1,1-.68-1.25A.71.71,0,0,1,109.61,83.66Z"/><path class="cls-15" d="M112.29,85.21a.71.71,0,0,1-.29,1,.7.7,0,0,1-1-.29.71.71,0,0,1,.29-1A.7.7,0,0,1,112.29,85.21Z"/><path class="cls-15" d="M114.1,82.6a.7.7,0,0,1-.29,1,.71.71,0,1,1,.29-1Z"/><path class="cls-15" d="M109.46,87.6a.71.71,0,1,1-1.25.67.69.69,0,0,1,.28-1A.71.71,0,0,1,109.46,87.6Z"/><path class="cls-10" d="M117.27,81s.63,1.56,2,1.21,1.55-2.26,1.55-2.26Z"/><path class="cls-7" d="M120.48,31.74c.47-3,12.38-7.9,18.57-11.85A167.57,167.57,0,0,0,155.81,7.08c6.58-5.92,11.48-.59,9.53,10.33-1.39,7.82-6.83,30.22-21.06,34.27S119.84,35.73,120.48,31.74Z"/><path class="cls-16" d="M132.7,32.24c.42-2.33,8.46-6.6,12.69-9.9a135.57,135.57,0,0,0,11.53-10.58c4.56-4.85,7.59-.89,5.9,7.67-1.21,6.13-5.63,23.74-15.16,27.43S132.13,35.37,132.7,32.24Z"/><path class="cls-4" d="M140.1,45.9c6.67-6.51,10.51-16,6.49-24.53-.41.34-.81.67-1.2,1-4.23,3.3-12.27,7.57-12.69,9.9S135.12,42.5,140.1,45.9Z"/><path class="cls-11" d="M154.81,13.89c-2.17,2.12-5.39,5.15-8.22,7.48,4,8.53.18,18-6.49,24.53a7.82,7.82,0,0,0,7.56,1C154.85,38.25,157.42,25.47,154.81,13.89Z"/><path class="cls-17" d="M117.17,65.53s1.64,5.21,5.76,3.15,2.61-8,2.61-8-1.24,4.94-3.85,5.9A4.4,4.4,0,0,1,117.17,65.53Z"/><path class="cls-18" d="M95.85,74.88s1.37,4.34,4.8,2.63,2.18-6.63,2.18-6.63-1,4.11-3.21,4.91A3.67,3.67,0,0,1,95.85,74.88Z"/><path class="cls-19" d="M46.71,86.77s22.58.57,25.06,2.29c5.43,3.76.38,10.33.38,10.33S24,104,21.27,96s4.59-11.67,4.59-11.67Z"/><path class="cls-4" d="M71.77,89.06c-2.28-1.58-21.49-2.19-24.61-2.28-3.51,4-6.19,8.87-6.18,13.87a308.26,308.26,0,0,0,31.17-1.26S77.2,92.82,71.77,89.06Z"/><path class="cls-20" d="M77.78,92.51c1,4,2.49,6.83,4.71,7s2.92-1.31,2.67-5.35-4.34-6.74-6.55-6.93S76.79,88.59,77.78,92.51Z"/><path class="cls-20" d="M72.88,93.22c-.3,4.18,3.54,6.64,5.82,6.83s4.07-2,3.27-6.07c-.82-4.25-3.51-6.74-5.79-6.93S73.17,89,72.88,93.22Z"/><path class="cls-20" d="M69.55,94.18c.48,4.15,1.2,5.77,5.2,6,2.28.15,3.41-2.85,2.93-7S75.59,87,73.32,87.34,69.07,90,69.55,94.18Z"/><path class="cls-20" d="M66.31,93c-.23,4.16.87,6.85,3.16,7s3.62-2.83,3.79-7c.06-1.43-.08-4.49-2.3-5.08C68.09,87.12,66.46,90.17,66.31,93Z"/><path class="cls-21" d="M83.07,98.78c-.26,1,1.88,1.38,1.94.34s-.42-3-1.22-3S83.3,97.81,83.07,98.78Z"/><path class="cls-21" d="M78.3,99.83c-.06,1,2.15,1.25,2.21.21s-.7-3.34-1.51-3.41S78.35,98.78,78.3,99.83Z"/><path class="cls-21" d="M75.07,99.67c-.06,1,2.09,1.34,2.15.3s-.82-3.19-1.62-3.25S75.13,98.63,75.07,99.67Z"/><path class="cls-21" d="M69.48,99.6c-.06,1,2.12,1.35,2.18.31s-.91-2.66-1.71-2.73S69.54,98.55,69.48,99.6Z"/><path class="cls-22" d="M54.3,37.23C79,47.65,86.53,90.59,57.46,91.74S18.62,89,17.45,77.59C15.92,62.67,20.26,22.87,54.3,37.23Z"/><path class="cls-23" d="M54.3,37.23A43,43,0,0,0,47.67,35C65.58,44.41,75,68,65.2,86.58a13.68,13.68,0,0,1-4,4.72C85.78,86.7,77.88,47.17,54.3,37.23Z"/><path class="cls-8" d="M30.36,37.22c-12.24,8.09-14,30.11-12.91,40.37,1,9.4,7.76,13.69,26.36,14.27A15.79,15.79,0,0,0,53,80.65C57.29,63.33,48.37,40.48,30.36,37.22Z"/><path class="cls-24" d="M30.5,21.71c-2.28-7.14-13.19-3.23-18.52.76S3.2,27.53,3.2,27.53H7.73s-4.27,1.6-7.73,8c2.66-.8,4.79-1.6,4.79-1.6S-1,46.53,2.18,53.18c3.38-4.61,17-8.7,21.27-13.36C27.07,35.83,32.74,28.71,30.5,21.71Z"/><path class="cls-7" d="M160.1,57.3s-6.95,22.58-22.69,28-21.77,5.36-22.51,13.4,4.38,4.77,12.43,3.68,20.19-2.11,32.4-6.35c16.82-5.85,20.28-32,14.45-43.71S166,47.07,160.1,57.3Z"/><path class="cls-20" d="M141.08,83.68a22.5,22.5,0,0,1-3.67,1.66c-15.73,5.46-21.77,5.36-22.51,13.4s4.38,4.77,12.43,3.68c5.93-.79,14.1-1.57,22.88-3.62C149.89,92.5,146.54,86.23,141.08,83.68Z"/><path class="cls-8" d="M174.18,52.36c-2.43-4.87-4.26-6.6-6-6.23a37.36,37.36,0,0,1,2.51,22.14c-5.48,23-29.62,25.24-49.37,29.63a17.62,17.62,0,0,0-6.41,3.53c.69,4.5,5.46,1.93,12.41,1,8-1.08,20.19-2.11,32.4-6.35C176.55,90.22,180,64.08,174.18,52.36Z"/><path class="cls-20" d="M115.51,96.45c-1,3.8-2.39,6.53-4.51,6.7s-2.8-1.25-2.54-5.12,4.16-6.44,6.27-6.61S116.46,92.71,115.51,96.45Z"/><path class="cls-20" d="M120.19,97.14c.29,4-3.39,6.35-5.57,6.52s-3.89-1.89-3.11-5.81,3.36-6.43,5.54-6.61S119.92,93.14,120.19,97.14Z"/><path class="cls-20" d="M123.38,98.06c-.47,4-1.16,5.52-5,5.77-2.18.14-3.26-2.73-2.79-6.7s2-6,4.18-5.61S123.84,94.1,123.38,98.06Z"/><path class="cls-20" d="M128.24,95.19c.21,4-2.61,8.33-4.79,8.43s-3.46-2.71-3.62-6.72c-.06-1.37.08-4.29,2.2-4.85C124.78,91.32,128.09,92.46,128.24,95.19Z"/><path class="cls-21" d="M110.45,102.44c.24,1-1.81,1.32-1.86.33s.4-2.83,1.17-2.89S110.22,101.52,110.45,102.44Z"/><path class="cls-21" d="M115,103.45c.06,1-2.06,1.19-2.11.2s.68-3.19,1.44-3.26S115,102.45,115,103.45Z"/><path class="cls-21" d="M118.09,103.31c.06,1-2,1.27-2,.28s.78-3,1.55-3.11S118,102.31,118.09,103.31Z"/><path class="cls-21" d="M123.44,103.25c0,1-2,1.29-2.1.29s.88-2.54,1.65-2.61S123.38,102.25,123.44,103.25Z"/></g></g></g></svg>