<svg xmlns="http://www.w3.org/2000/svg" xmlns:xlink="http://www.w3.org/1999/xlink" viewBox="0 0 173.03 192.55"><defs><style>.cls-1{fill:none;}.cls-2{clip-path:url(#clip-path);}.cls-3{fill:#ff7400;}.cls-4{fill:#343434;}.cls-5{fill:#ff7931;}.cls-6{fill:#f8d59b;}</style><clipPath id="clip-path" transform="translate(0 0.01)"><rect class="cls-1" x="72.4" width="100.63" height="137.42"/></clipPath></defs><g id="Layer_2" data-name="Layer 2"><g id="Layer_1-2" data-name="Layer 1"><g class="cls-2"><path class="cls-3" d="M133,36.22a7,7,0,0,0,2,2.46.26.26,0,0,0,.15,0,.22.22,0,0,0,.36-.15c.2-1.07.39-2.14.57-3.22.09-.52.21-1,.27-1.57a1.14,1.14,0,0,0-.19-.95c-.51-.6-1.12,0-1.38.54a6.56,6.56,0,0,0-.59,1.8l-.47-1a9.42,9.42,0,0,0-.77-1.48c-.52-.72-1.48-.37-1.28.57A10,10,0,0,0,133,36.22Zm-.38-3a3.41,3.41,0,0,1,.3.64c.39.84.8,1.67,1.2,2.5.13.27.53.13.53-.16a5.91,5.91,0,0,1,.36-2c.05-.12.33-1,.51-1,.25-.24.33-.11.33.2a1.14,1.14,0,0,1,0,.26,5.67,5.67,0,0,1-.1.57c-.21,1.27-.43,2.54-.64,3.82-.36-.55-.85-1-1.21-1.57a14.55,14.55,0,0,1-1.16-2.08,9,9,0,0,1-.46-1.11,1.83,1.83,0,0,1-.07-.32c.23-.08.37,0,.43.18Z" transform="translate(0 0.01)"/><path class="cls-4" d="M111.83,125.17c-.06-1.71-.09-3.42-.08-5.14,0-3.39.13-6.79.31-10.18.09-1.68.2-3.37.32-5L110.79,103c-2.26-2.56-4.53-5.1-6.79-7.65-1.23-1.4-2.51-2.75-3.76-4.13l.74,17.34c.13,3.18.27,6.35.41,9.53a16,16,0,0,1-.23,4.58,14.42,14.42,0,0,1-1.94,3.76,6.26,6.26,0,0,0-1.16,4,3,3,0,0,0,1.83,2.52,5.1,5.1,0,0,1,0-1.65,5,5,0,0,1,.9-2.21c.16-.22.51,0,.36.22a5.21,5.21,0,0,0-.71,2.07,5,5,0,0,0,0,1,4.34,4.34,0,0,0,.09.54,2,2,0,0,0,1.09.26l1-.05a4.81,4.81,0,0,1-.14-1.2,4,4,0,0,1,.63-2.17.29.29,0,0,1,.18-.11.31.31,0,0,1,.21,0,.31.31,0,0,1,.13.17.3.3,0,0,1,0,.23,4.38,4.38,0,0,0-.39,1.92,4.15,4.15,0,0,0,.2,1.05c1-.09,1.91-.23,2.85-.32l2.4-.23a5.49,5.49,0,0,0,1.75-.34,2.89,2.89,0,0,0,1.61-2.6A36,36,0,0,0,111.83,125.17Zm-6.27-12.39.07.08-.09.17C105.55,112.94,105.55,112.86,105.56,112.78Zm-.78-5.36a2,2,0,0,0-.17-.23v-.59C104.66,106.87,104.72,107.14,104.78,107.42Zm-1,11c0-.4,0-.8,0-1.2a.44.44,0,0,0,.23,0,.57.57,0,0,0,.21-.13c0,.26,0,.52,0,.79-.15.19-.3.38-.46.56Zm.71-9.09v-.07l.09.13.17.28-.21-.28,0,0Zm.18,2.64v-.32l.17.23a.56.56,0,0,0-.17.09Zm1.22,11.25a3.58,3.58,0,0,1-.71-.64.68.68,0,0,0,.37.07.63.63,0,0,0,.35-.13,1,1,0,0,0,.23.37.79.79,0,0,0,.39.19.47.47,0,0,1-.62.14Zm2-13a11.4,11.4,0,0,1,.12,1.16c-.09-.38-.19-.75-.31-1.11a.65.65,0,0,0,.2,0Zm.37,3.79-.3-.74c0-.13,0-.27,0-.4a.69.69,0,0,0,.2-.3,5.76,5.76,0,0,1,.12,1.44Z" transform="translate(0 0.01)"/><path class="cls-4" d="M172.84,108.85a58.86,58.86,0,0,0-1.25-9.27A38.9,38.9,0,0,0,169.54,93c-.16-.44-.33-.87-.51-1.3a66.7,66.7,0,0,0-7.14-12,128.17,128.17,0,0,0-17.44-20l-.29-.24c-1-.89-2.13-1.74-3.13-2.7l-3.37,6.44c-1.11,2.12-2.19,4.26-3.4,6.32-2.41,4.08-5.66,7.47-8.74,11-.46.51-.91,1-1.37,1.55a1.55,1.55,0,0,1-.68.51c-.47.1-.66-.32-.52-.75a9.79,9.79,0,0,1,.93-1.75c.32-.55.68-1.11,1.05-1.64a.36.36,0,0,0,0-.11c.12-.25-.26-.46-.43-.22a18.43,18.43,0,0,1-5.79,5.44,3.55,3.55,0,0,1-.78.44c-.69.19-.55-.55-.28-.9.47-.6,1.09-1.11,1.61-1.66q1.55-1.59,3-3.25l.3-.4c.12-.17,1-1.53.38-1.38-.34.08-.65.49-.92.72s-.85.65-1.28,1l-.31.21-.54.41a22.32,22.32,0,0,1-2.22,1.57,13.93,13.93,0,0,1-3.1,1.68,1,1,0,0,1-.44.09c-.53-.19-.12-.67,0-.87s.61-.6.91-.9l1.75-1.73,3.75-3.7a.75.75,0,0,0,.09-.29l0,0,0,0a.29.29,0,0,0,0-.09.28.28,0,0,0-.36-.19l0,0a41.84,41.84,0,0,1-5.82,4.47c-.48.32-1,.62-1.48.91s-1.43,1-1.81.37.48-1.19.78-1.5a14.21,14.21,0,0,1,1.23-1.1c1.5-1.21,3.14-2.22,4.54-3.55a9.61,9.61,0,0,0,1.82-2.24c0-.11.11-.22.15-.33a.85.85,0,0,0,0-.39.6.6,0,0,0-.77-.45,5.84,5.84,0,0,0-1,.59,24,24,0,0,1-2.37,1.21c-.72.33-1.46.61-2.18,1-.49.22-1.27.61-1.75.15s.15-1.12.54-1.44.63-.52,1-.76C114.51,70,116,69,117.38,68a46.94,46.94,0,0,0,5.22-4.46,50.62,50.62,0,0,0,11.78-18.17.19.19,0,0,0,0-.13.21.21,0,0,0-.06-.1v0a17.4,17.4,0,0,0-2.43-4.49c-1.07-1.49-2.2-2.93-3.31-4.39-.59-.78-1.21-1.56-1.79-2.36a3.36,3.36,0,0,1-.62-1.29c-.09-.46-.09-.94-.14-1.41a35.2,35.2,0,0,0-1.51-5.7L123,20.34l-1.92.84a20.82,20.82,0,0,0-4,2.29c-1.2.89-2.3,1.9-3.47,2.84-.89.71-2.2,1.94-3.37,1.12-.94-.67-1.17-2.29-1.47-3.35s-.58-2.19-.81-3.3l0-.06a3.27,3.27,0,0,1-.17-1c0-.16-.06-.32-.08-.48a30.22,30.22,0,0,1-.31-4.94,23.16,23.16,0,0,0-.46-5c-.36-1.62-.89-3.17-1.33-4.76a.18.18,0,0,1,.35-.11,34.74,34.74,0,0,1,1.45,5,25.82,25.82,0,0,1,.45,5.19c0,.35,0,.69,0,1,0,.5,0,1,0,1.48a14.86,14.86,0,0,0,.3,2.4,8.91,8.91,0,0,0,.31,1.26c.22,1.05.49,2.08.77,3.1.2.72.38,1.46.64,2.15s.55,1.18,1.18,1.19,1.45-.7,2-1.15,1.11-.93,1.67-1.4a25.51,25.51,0,0,1,3.35-2.52c1.2-.71,2.43-1.27,3.67-1.86l1-.51v0a9.51,9.51,0,0,0,.92-.76,3.51,3.51,0,0,0,1-3.33c-.22-1.52-.56-3-.9-4.52a33.69,33.69,0,0,0-1.31-4.54,7.94,7.94,0,0,0-1.86-3.24,4.6,4.6,0,0,0-3.35-.88,8,8,0,0,1-1.9-.14,5.9,5.9,0,0,1,.22,3c0,.1-.17.07-.18,0a11.85,11.85,0,0,0-.58-3.19c-.67-.29-1.27-.74-2-1a8,8,0,0,0-4.62.24A62.91,62.91,0,0,0,99.46.07a22.91,22.91,0,0,0-5.3.15,6.67,6.67,0,0,0-3.78,2.43,49.72,49.72,0,0,0-3.8,4.75l0,0Q81.18,8.9,75.92,10.74l-.66.22.33.17a3,3,0,0,1,1.12.93c.72,1,0,2.1-.43,3.08a4.57,4.57,0,0,1-.66,1.28,24.42,24.42,0,0,1,.89,2.48c.32.93.64,1.86,1,2.79,1,.87,1.93,1.73,2.87,2.62l1.45,1.36a3.08,3.08,0,0,0,1.58.94,8.11,8.11,0,0,0,1.84-.13,8.58,8.58,0,0,1,1.68,0,9,9,0,0,1,1.63.29l.49.13c-.42,0-.85-.05-1.27-.05a17.29,17.29,0,0,0-3.13.22,4,4,0,0,1-1.79-.16A4.46,4.46,0,0,1,81.58,26l-1.47-1.31c-1-.87-1.9-1.74-2.84-2.63A10.4,10.4,0,0,0,76,23.47c-.14.18-.27.36-.4.55,1.22,2.79,3.89,4.33,6.48,5.42C85,30.68,88,31.82,91,33a7.34,7.34,0,0,1,.92,3.44,6.69,6.69,0,0,1-.26,2,4,4,0,0,0-.31,1.84,1.9,1.9,0,0,0,1,1.23,19.71,19.71,0,0,0,1.8.85,26.31,26.31,0,0,0,4.12,1.4,31.48,31.48,0,0,0,17-.6,35.33,35.33,0,0,0,4.56-1.73,31.05,31.05,0,0,1,4.66-1.87c.41.38-1.11,1.7-1.36,1.93A14.3,14.3,0,0,1,121.26,43a17.34,17.34,0,0,1-1.87,1.07c-.39.2-.83.58-.65,1.1s.87.41,1.31.36c.79-.09,1.57-.22,2.36-.37s1.64-.33,2.46-.45a10.84,10.84,0,0,1,2.53-.19.62.62,0,0,1,.23,0c.05,0,.23.26.22.35s-.34.31-.47.38a10.79,10.79,0,0,1-1.15.53c-.73.28-1.47.5-2.22.71s-1.5.41-2.24.65a3.86,3.86,0,0,0-1.7.76.64.64,0,0,0,.23,1,1.71,1.71,0,0,0,.84,0c.4,0,.79-.12,1.18-.2a30.19,30.19,0,0,1,4.8-.86,6,6,0,0,1,1.34.06c.16,0,.5.09.56.27a.51.51,0,0,1,0,.21,5.16,5.16,0,0,1-1.56,1.05,23.78,23.78,0,0,1-2.51,1,24.48,24.48,0,0,1-2.5.71c-.6.13-1.42.12-1.84.67h0a.36.36,0,0,0-.08.12.38.38,0,0,0,0,.15.3.3,0,0,0,.09.13.25.25,0,0,0,.13.05,18.82,18.82,0,0,0,3.08-.32,14.52,14.52,0,0,1,3.28-.42,2.11,2.11,0,0,1,.71.11c.46.2.31.62,0,.87a6,6,0,0,1-1.25.76l-.59.26a14.66,14.66,0,0,1-2.26.57l-2.76.49c-.38.06-.75.11-1.13.14l-.17,0c-.16,0-.55.15-.51.39a.34.34,0,0,0,.06.12l.11.08,3.64.14c.36,0,1.79-.13,1.47.58-.24.55-1.35.46-1.81.51-2.4.25-4.8.41-7.22.49-4.88.17-9.77,0-14.65-.2-2.79-.13-5.57-.3-8.35-.48a.45.45,0,0,0-.21.12.4.4,0,0,0-.12.21c.55,10.78,1.19,22.12,6.64,31.58.23.39.46.78.7,1.16.67.71,1.33,1.43,2,2.15,2.34,2.53,4.67,5.07,6.94,7.66q1.68,1.94,3.35,3.88l1.74,2,.07.09c1,1.09,2,2.21,3,3.38a29,29,0,0,0,0-3c-.18-4.13-.93-8.17-1.51-12.25a33.8,33.8,0,0,0-1.35-6.38,22.92,22.92,0,0,0-1.23-3.46,12.65,12.65,0,0,1,2.36,5,49.74,49.74,0,0,1,1,5.43c.3,2.15.53,4.3.83,6.45a50.73,50.73,0,0,1,.57,6.16,26.65,26.65,0,0,1-.08,2.68v0c.11,1,.22,2.06.32,3.1l0,7.13c0,1.87.16,3.9-.65,5.64-.69,1.5-1.92,2.74-2.13,4.47,0,.05,0,.09,0,.14v.46a.31.31,0,0,0,0,.09v.05a.29.29,0,0,0,0,.09v0l0,.13,0,.13v.05l0,.08a.08.08,0,0,0,0,0l0,.08,0,.06s0,0,0,.07l0,.05,0,.08,0,.05,0,.08,0,0,.06.1.07.11,0,0,0,.07,0,0,.05.06,0,0,.05.06,0,0,0,.05,0,0,.06.05,0,0,.1.07.1.07,0,0,.07,0,0,0,.07,0,0,0,.07,0,0,0,.07,0h.05l.08,0h0l.12,0h0a2,2,0,0,0,.2.31l1.67-.44v-.08l-.64.22.64-.22a7.25,7.25,0,0,1,.45-2.88c.1-.28.54-.17.44.13a7.89,7.89,0,0,0-.33,2.69l1.84-.49,1.74-.46a6.63,6.63,0,0,1-.11-.76,6.26,6.26,0,0,1,0-1.3c0-.34.54-.35.51,0s0,.83,0,1.25c0,.22,0,.45,0,.68,1.86-.5,3.73-1,5.62-1.35,0-.79.1-1.59.15-2.39s.08-1.54.1-2.31c0-1.54,0-3.09,0-4.64-.06-5.51-.31-11,.57-16.5a32.34,32.34,0,0,0,.55-8.39,61.67,61.67,0,0,0-1.71-8.21.13.13,0,0,1,0-.06.08.08,0,0,1,0-.06.1.1,0,0,1,0,0l.05,0h.06l.06,0a.08.08,0,0,1,0,0,.05.05,0,0,1,0,0,47.39,47.39,0,0,1,2.1,9.05,20.06,20.06,0,0,1,.06,4.1c-.14,1.39-.39,2.76-.61,4.14a59.61,59.61,0,0,0-.68,8.55c0,2.18,0,4.37.05,6.56h0v-.2c1,.88,2.14,1.7,3.27,2.47.71-.22,1.45-.36,2.14-.62a3.64,3.64,0,0,0,1.85-1.34,3.42,3.42,0,0,0,.35-2.53c-.28-1.53-.89-3-1.31-4.5s-.81-3.2-1.1-4.84c-.58-3.12-1-6.47-.1-9.57a16.15,16.15,0,0,1,4.38-7A25,25,0,0,1,142.54,89a14.61,14.61,0,0,1,3.76-2l-.26.19c-.59.41-1.17.84-1.74,1.27-.75.57-1.49,1.14-2.22,1.73a21,21,0,0,0-3.48,3.12,13.85,13.85,0,0,0-3.55,8,32.69,32.69,0,0,0,1.11,9.89c.36,1.57.84,3.08,1.28,4.62a6.47,6.47,0,0,1,.18,4.1,3.42,3.42,0,0,1-.7,1.12,20.9,20.9,0,0,1-2.48,1.19,22.2,22.2,0,0,1-2.47.8c-.45.12-.89.21-1.34.31s-.76.06-.94.41v0l-.12,0c0,.77,0,1.54-.09,2.31a19.91,19.91,0,0,1-.41,3.86,23.42,23.42,0,0,1,3.54-.42,22.42,22.42,0,0,1,3.84.29c1.32.19,2.62.34,3.93.4a11.58,11.58,0,0,0,3.32-.29c1.2-.2,2.4-.45,3.58-.75s2.35-.65,3.51-1a17.09,17.09,0,0,0,2.11-.83l.11,0a19.19,19.19,0,0,0,4.34-3.17A22.26,22.26,0,0,0,162,117c0-.1.18,0,.16.07a16.39,16.39,0,0,1-9.34,10.9c-.27.15-.55.3-.84.44h0l-.11,0-.44.2c-.31.14-.61.27-.93.39a24.36,24.36,0,0,1-6.7,1.7,31.16,31.16,0,0,1-7.53-.37,21.48,21.48,0,0,0-4.24-.26,24.06,24.06,0,0,0-4,.62c-1.23.28-2.45.59-3.67.9-.86.15-1.72.31-2.58.5q-2.51.52-5,1.23c-.8.23-1.61.48-2.4.77l-.17.06c-.61.15-1.22.3-1.85.4s-1.23.54-1.13,1.23a.75.75,0,0,0,.81.68h0c10,.26,19.9.55,29.85.79a97.09,97.09,0,0,0,14.57-.47c3.95-.52,8.06-1.61,11-4.63a15.32,15.32,0,0,0,2.68-3.86,22.47,22.47,0,0,0,2.74-9.9A77.54,77.54,0,0,0,172.84,108.85ZM118.5,12.55a.78.78,0,0,0,.2-.16c0,.09,0,.19,0,.28l-.27,0,0-.08Zm-1.81,1.75c0,.2-.08.4-.13.6h-.12l-.24-.46.49-.15Zm-1.39-3.11a.43.43,0,0,1,.14.16,3.55,3.55,0,0,0-.23.31c-.06-.2-.11-.39-.16-.59v0a.82.82,0,0,1,.26.14Zm-.52,3.55c0,.08,0,.16,0,.25a.2.2,0,0,0,0,.07l-.09-.32ZM95.35,29.05c-.08-.18-.15-.36-.22-.54a.3.3,0,0,0,.13-.12c.1-.17.19-.22.27-.38ZM97.49,9.17a5.5,5.5,0,0,1-.91-.45H96.5l-.08,0-.15-.07a2.19,2.19,0,0,0-.91-.16.24.24,0,0,1-.1.1.19.19,0,0,1-.12,0,4,4,0,0,0-.92.08c-.33.11-.65.24-1,.36a.18.18,0,0,1-.1,0,.15.15,0,0,1-.09,0,11.52,11.52,0,0,1-.64,1,.13.13,0,0,1-.09.07.14.14,0,0,1-.11,0,.14.14,0,0,1-.07-.1.17.17,0,0,1,0-.12,15.24,15.24,0,0,1,.9-1.81,7.25,7.25,0,0,1,.4-.77h0a.13.13,0,0,1-.08-.07.14.14,0,0,1,0-.11A.18.18,0,0,1,93.44,7a.21.21,0,0,1,.11,0l.17,0,.09,0c.32-.09.78.23,1.09.41s.52.2.78.32.69.35,1,.53a3.88,3.88,0,0,1,1,.59.15.15,0,0,1,0,.1.12.12,0,0,1,0,.1.11.11,0,0,1-.08.07.12.12,0,0,1-.1,0Zm.33,13.45.09-.56a4.15,4.15,0,0,1,.3.43.56.56,0,0,0-.39.13ZM98.71,29l-.2-.75c.08.22.17.45.26.68Zm.68,2.61-.08-.33-.15-.54.2-.17c0,.25,0,.49,0,.73s0,.19,0,.29Zm.75-9.49a.4.4,0,0,1,.15-.14.36.36,0,0,1,.18-.07s0,0,0,.05l-.34.16Zm1.53,6.51.1-.08.12.59,0,.08-.15-.27c0-.11,0-.2,0-.31Zm0,3.83,0-.12.13-.06h0l0,.1Zm1.94-2c-.11-.52-.21-1-.32-1.56,0-.15.07-.3.1-.45.28.63.53,1.27.77,1.92a4.68,4.68,0,0,0-.56.09ZM101.1,69.65l.12.14a5.38,5.38,0,0,0-.07.69l-.22-.17q.06-.33.15-.66Zm-4.37.23-.11.05c0-.28.07-.56.12-.83a.86.86,0,0,0,.13-.14C96.82,69.26,96.77,69.57,96.73,69.88ZM97.86,73c0,.21.11.43.17.65l-.54-.42a.57.57,0,0,0,.36-.23Zm-.21,2.46a2.49,2.49,0,0,0-.11-.29c.45.37.9.74,1.36,1.1-.4-.27-.8-.54-1.2-.79Zm1,2.21.19.15a2.6,2.6,0,0,0,.1.4l-.29-.55Zm.68-12.39a3.69,3.69,0,0,0,.17.42.35.35,0,0,1-.16.18.37.37,0,0,1-.23,0c.07-.22.14-.43.22-.64Zm.2,14c-.14-.23-.28-.46-.41-.69a.52.52,0,0,0,.23.1.43.43,0,0,0,.25,0c0,.2,0,.41-.07.62ZM99.7,69c0-.24.11-.48.18-.71l0,0c-.08.23-.14.45-.21.68Zm1,6.87-.24-.21-.12-.26.06.21-.14-.11c0-.17,0-.34,0-.5.32.4.64.81.94,1.23l-.51-.36Zm-.22-3.2.09-.62c.26.29.52.59.77.89l.16.52c-.34-.25-.68-.51-1-.79Zm1.82,9.1-.43-.37c.06-.23.11-.45.16-.68l.26.31.09.33a.56.56,0,0,1-.08.41Zm2.57,2.68-.18-.22h0a.49.49,0,0,0,.24,0c0,.07,0,.14-.08.22Zm-.12-2.23.23.16.08,0c0,.11,0,.21,0,.32-.11-.18-.23-.36-.35-.53Zm18.46,21.2c.1.34.19.68.28,1a8.42,8.42,0,0,0-.52-.8l.25-.22ZM121,110.47c0-.15,0-.29,0-.44l.07.15a2.83,2.83,0,0,1,0,.29Zm.72-3.36-.52-.4h0a9,9,0,0,1,.25-.89.52.52,0,0,0,0,.11.67.67,0,0,0,.16.3.59.59,0,0,0,.29.18H122c-.1.23-.18.46-.27.7Zm.69,2.31,0,0c0-.14,0-.27.07-.41l.08.06,0,.08-.1.31Zm.19,4.86a.39.39,0,0,1-.1.08c0-.26.07-.52.11-.78l.31.23a3,3,0,0,1-.32.47Zm.32-6.33-.16-.11c0-.13.09-.25.13-.38l.15.17Zm1.21,3.92c-.22-.37-.46-.73-.71-1.09l.3-.8a1.71,1.71,0,0,0,.7.32,8.19,8.19,0,0,1-.28,1.57Zm0-3.08c.09-.26.16-.52.24-.78,0,.32.07.64.08,1a1.92,1.92,0,0,1-.31-.18Zm13.78-26.91-.12,0,.24-.87c0-.1.07-.21.1-.33l.1,0c-.11.4-.21.8-.32,1.2Zm.47-1.81c0,.08,0,.16-.07.24l-.06,0,.25-.92h.05Zm0-6.88a4.21,4.21,0,0,0,.49-.09l-.19.43-.3-.34Zm.36,5.51,0,0,0-.13c.08-.28.16-.56.23-.85Zm2.09-4.07a.64.64,0,0,0-1,0h0c.09-.35.17-.69.25-1l.17.15.64.58c0,.12,0,.24,0,.36Zm.94,5.26-.09.13c.07-.37.13-.75.17-1.12l.16.87-.24.12ZM143,74.21l0,.34-.19-.19.16-.15Zm.06,2.61h0s0,.06,0,.09c0-.19-.07-.37-.1-.56l.16.17c0,.1,0,.21,0,.31ZM142,109.69c0,.12,0,.24,0,.36l-.09-.34.06-.77.13.46A2.93,2.93,0,0,1,142,109.69Zm1.94-8.46c.08.16.14.32.22.48s0,.33-.07.5c-.12-.31-.24-.61-.35-.92a.47.47,0,0,0,.2-.06Zm-.44,5a16,16,0,0,0-.48-1.63,1.42,1.42,0,0,0-.08-.18l.09,0c0-.34,0-.69,0-1,.23.63.49,1.26.77,1.87a1.34,1.34,0,0,0,0,.69,2,2,0,0,0,.13.25,1,1,0,0,0-.48.09Zm.88,3.87a3.36,3.36,0,0,1-.22-.42,5.15,5.15,0,0,1-.23-.54c0-.47-.08-.93-.14-1.39a.39.39,0,0,1,.12-.19.09.09,0,0,1,.05,0,1,1,0,0,1,.16.28,5.44,5.44,0,0,1,.23.68.84.84,0,0,0-.13.27.71.71,0,0,0,0,.29.64.64,0,0,0,.11.27.67.67,0,0,0,.2.21l0,.2c-.07.12-.12.25-.18.37Zm0-7.18-.11-.24c0-.17.06-.33.1-.49.06.13.12.27.19.4a3.37,3.37,0,0,0-.19.32Zm.87-2.45-.12-.22.42-.33-.3.55Zm7.35-.79-.12.08a2.44,2.44,0,0,0-.22-.31,4,4,0,0,1,.34.23Zm-8.25-21.11a1.23,1.23,0,0,1,0-.19l.09.23Zm2.75.39a9.77,9.77,0,0,0-1.19-1.45,13.1,13.1,0,0,1,1.12.88.42.42,0,0,1,.14.26.44.44,0,0,1-.07.3Zm.3,29.55a1.67,1.67,0,0,0-.15-.48l.13-.09a4.78,4.78,0,0,1,.07.65Zm.31,4.74a3.51,3.51,0,0,0,.36-.29.7.7,0,0,0,.11.23v.4l-.47-.35Zm.78-7.34s0,0,0,0l0,0-.16-.27.34-.37a1.6,1.6,0,0,0,.1.23l-.24.42Zm2.25-6.89a.51.51,0,0,0-.1.24.53.53,0,0,0,0,.25l-.05.23-1-1.5.21-.22a2.77,2.77,0,0,1,.33.55,4.34,4.34,0,0,1,.62.16Zm1.55,9c0-.1,0-.2,0-.3a.77.77,0,0,0,0-.3.7.7,0,0,0-.17-.24,1.19,1.19,0,0,0,.38-.5l.1.1a.87.87,0,0,0,.06.32c-.11.31-.24.61-.37.92Zm1.57-7c-.1.32-.19.64-.29,1,0,0,0-.08,0-.11,0-.44,0-.89.06-1.33l.33.33a.94.94,0,0,0-.06.15Zm1.06,2c0-.17.07-.34.1-.51a.5.5,0,0,1,0,.27.41.41,0,0,1-.11.24Zm4.37,24.1c.16-.31.31-.62.45-.94.06.36.13.73.22,1.09l0,.56c-.12.23-.26.46-.39.69a11.26,11.26,0,0,0-.3-1.4Zm.69,2c0,.17,0,.35,0,.52l0-.11c-.08-.15-.15-.31-.22-.46l0-.26.36-.2a4.3,4.3,0,0,1,0,.51Zm1.14-4.3a5.41,5.41,0,0,1-.12.58c0-.19-.09-.37-.14-.56a.69.69,0,0,0-.22-.33.61.61,0,0,0-.36-.15c.25-.36.93-.08.85.46Zm.74,3.69c-.11-.26-.21-.53-.3-.8,0,0,0-.09,0-.13l.44-.34c0,.4,0,.8,0,1.2Zm1.24-5.39a10.51,10.51,0,0,1,.06-1.12.53.53,0,0,1,.17-.36.89.89,0,0,0,0,.4,19.75,19.75,0,0,1,.29,2.54l-.48-1.45Zm3.44,2.77a7.11,7.11,0,0,0-.09-1.3.41.41,0,0,1,.15.17.46.46,0,0,1,0,.23,5.51,5.51,0,0,1-.1.91Zm5.15-22.68c-.07-.58-.14-1.16-.22-1.75.11.6.21,1.19.3,1.78l-.07,0Z" transform="translate(0 0.01)"/><path class="cls-4" d="M77.06,21.71l-1-2.59a24.52,24.52,0,0,1-.88-2.4,1.4,1.4,0,0,1-1-.08,6.92,6.92,0,0,1-1.69-1.1l0,.35a18.49,18.49,0,0,0,2.72,7.77l.34-.42a10.71,10.71,0,0,1,1.48-1.53Z" transform="translate(0 0.01)"/><path class="cls-4" d="M93.54,8.18l0,.05a1.09,1.09,0,0,0-.08.15l.4-.16-.29,0Z" transform="translate(0 0.01)"/><path class="cls-4" d="M75.45,15.91a12.77,12.77,0,0,0,.63-1.35,3.7,3.7,0,0,0,.54-1.73,1.61,1.61,0,0,0-.86-1.12c-.34-.2-.76-.34-1.14-.53a2.81,2.81,0,0,0-2.16,2.2,6.74,6.74,0,0,0,0,1.49A11.48,11.48,0,0,0,73.92,16C74.44,16.28,75.05,16.57,75.45,15.91Z" transform="translate(0 0.01)"/></g><path class="cls-5" d="M1,134.54v-39a2.22,2.22,0,0,1,.78-1.68,3.2,3.2,0,0,1,2.16-.72H16q6.18,0,9.9,3.3t3.72,10.2V107q0,7-3.9,10.32t-10.2,3.3H8.8v13.92a2,2,0,0,1-1.2,1.8,5.3,5.3,0,0,1-2.7.66,5.42,5.42,0,0,1-2.76-.66A2,2,0,0,1,1,134.54Zm7.8-20h6.72a6,6,0,0,0,4.62-1.74,7.15,7.15,0,0,0,1.68-5.16v-.72a7.15,7.15,0,0,0-1.68-5.16A6,6,0,0,0,15.52,100H8.8Zm22.91,10.86V111a2.13,2.13,0,0,1,1.14-1.68,5,5,0,0,1,2.76-.78,4.56,4.56,0,0,1,2.64.78,2.13,2.13,0,0,1,1.2,1.68v14.4A5.42,5.42,0,0,0,41,129.14a5,5,0,0,0,3.72,1.62,4.8,4.8,0,0,0,3.66-1.62A5.42,5.42,0,0,0,50,125.36V110.9a2,2,0,0,1,1.14-1.68,5.26,5.26,0,0,1,2.76-.72,4.88,4.88,0,0,1,2.76.72,2,2,0,0,1,1.08,1.68v14.46a11.43,11.43,0,0,1-3.84,8.52,12.77,12.77,0,0,1-9.12,3.66,13,13,0,0,1-9.18-3.66A11.43,11.43,0,0,1,31.71,125.36ZM62,147.8V110.9a2,2,0,0,1,1-1.74,5,5,0,0,1,2.64-.66,4.66,4.66,0,0,1,2.58.66,2,2,0,0,1,1,1.74v1.8a9.65,9.65,0,0,1,3.24-3.24,9.13,9.13,0,0,1,4.86-1.32,9.72,9.72,0,0,1,7.62,3.6,12.52,12.52,0,0,1,3.12,8.58v4.92A12.82,12.82,0,0,1,85,133.82a9.43,9.43,0,0,1-7.32,3.72,8.93,8.93,0,0,1-4.8-1.38,8.36,8.36,0,0,1-3.06-3.36v15a2,2,0,0,1-1.2,1.68,4.77,4.77,0,0,1-2.76.78,4.49,4.49,0,0,1-2.7-.78A2,2,0,0,1,62,147.8Zm7.74-21.48a4.44,4.44,0,0,0,1.62,2.82,5,5,0,0,0,7.38-.06,5.52,5.52,0,0,0,1.62-3.84v-4.92a5.65,5.65,0,0,0-5.46-5.4,5,5,0,0,0-3.6,1.5,5.17,5.17,0,0,0-1.56,3.9Z" transform="translate(0 0.01)"/><path class="cls-6" d="M1.78,93.86l-.65-.76h0l0,0ZM25.9,96.44l-.66.75h0Zm-.18,20.88-.65-.76h0ZM8.8,120.62v-1h-1v1ZM7.6,136.34l-.48-.88h0ZM8.8,114.5h-1v1h1Zm11.34-1.74-.72-.69h0Zm0-11-.73.68h0ZM8.8,100V99h-1v1ZM2,134.54v-39H0v39Zm0-39a1.24,1.24,0,0,1,.46-1L1.1,93.13A3.2,3.2,0,0,0,0,95.54Zm.43-.92a2.2,2.2,0,0,1,1.51-.48v-2a4.21,4.21,0,0,0-2.81,1Zm1.51-.48H16v-2H3.94Zm12.06,0c3.94,0,7,1,9.24,3l1.32-1.5c-2.7-2.4-6.26-3.55-10.56-3.55Zm9.24,3c2.19,1.91,3.38,5,3.38,9.45h2c0-4.81-1.29-8.54-4.06-11Zm3.38,9.45V107h2v-.36Zm0,.36c0,4.5-1.25,7.61-3.55,9.56l1.3,1.52c2.9-2.45,4.25-6.22,4.25-11.08Zm-3.55,9.56c-2.34,2-5.49,3.06-9.55,3.06v2c4.42,0,8.07-1.15,10.85-3.54Zm-9.55,3.06H8.8v2h6.72Zm-7.72,1v13.92h2V120.62Zm0,13.92c0,.31-.12.62-.68.92l1,1.76a3,3,0,0,0,1.72-2.68Zm-.7.94a4.36,4.36,0,0,1-2.2.52v2a6.33,6.33,0,0,0,3.2-.79ZM4.9,136a4.5,4.5,0,0,1-2.26-.52l-1,1.73A6.45,6.45,0,0,0,4.9,138Zm-2.26-.52a1,1,0,0,1-.64-.94H0a3,3,0,0,0,1.64,2.67Zm6.16-20h6.72v-2H8.8Zm6.72,0a7,7,0,0,0,5.35-2.06l-1.46-1.36a5,5,0,0,1-3.89,1.42Zm5.34-2a8.18,8.18,0,0,0,2-5.86h-2a6.18,6.18,0,0,1-1.4,4.47Zm2-5.86v-.72h-2v.72Zm0-.72a8.14,8.14,0,0,0-2-5.85l-1.44,1.39a6.14,6.14,0,0,1,1.4,4.46ZM20.87,101A7,7,0,0,0,15.52,99v2a5.05,5.05,0,0,1,3.89,1.42ZM15.52,99H8.8v2h6.72ZM7.8,100V114.5h2V100Zm25.05,9.3-.55-.84h0Zm5.4,0-.57.83h0ZM41,129.14l-.74.68h0Zm7.38,0-.74-.68h0Zm2.7-19.92-.52-.86h0Zm5.52,0-.56.83h0Zm-2.76,24.66.69.72h0Zm-18.3,0-.69.72h0Zm-2.84-8.52V111h-2v14.4Zm0-14.4c0-.12.06-.42.7-.85l-1.13-1.65a3.09,3.09,0,0,0-1.57,2.5Zm.68-.84a3.91,3.91,0,0,1,2.22-.62v-2a6,6,0,0,0-3.31.94Zm2.22-.62a3.54,3.54,0,0,1,2.07.61l1.13-1.65a5.51,5.51,0,0,0-3.2-1Zm2.09.62c.69.45.75.74.75.84h2a3.11,3.11,0,0,0-1.66-2.52Zm.75.84v14.4h2V111Zm0,14.4a6.43,6.43,0,0,0,1.82,4.46l1.47-1.36a4.4,4.4,0,0,1-1.29-3.1Zm1.84,4.47a6,6,0,0,0,4.44,1.93v-2a4,4,0,0,1-3-1.31Zm4.44,1.93a5.8,5.8,0,0,0,4.39-1.94l-1.47-1.36a3.79,3.79,0,0,1-2.92,1.3Zm4.39-1.94A6.44,6.44,0,0,0,51,125.36H49a4.41,4.41,0,0,1-1.3,3.1ZM51,125.36V110.9H49v14.46Zm0-14.46c0-.17.07-.46.67-.83l-1.07-1.69A3,3,0,0,0,49,110.9Zm.65-.82a4.25,4.25,0,0,1,2.25-.58v-2a6.3,6.3,0,0,0-3.28.86Zm2.25-.58a3.89,3.89,0,0,1,2.2.55l1.11-1.66a5.84,5.84,0,0,0-3.31-.89Zm2.2.55c.55.37.64.66.64.85h2a3,3,0,0,0-1.53-2.51Zm.64.85v14.46h2V110.9Zm0,14.46a10.44,10.44,0,0,1-3.53,7.8l1.38,1.44a12.44,12.44,0,0,0,4.15-9.24Zm-3.53,7.8a11.79,11.79,0,0,1-8.43,3.38v2a13.78,13.78,0,0,0,9.81-3.94Zm-8.43,3.38a12,12,0,0,1-8.5-3.39l-1.37,1.46a14,14,0,0,0,9.87,3.93Zm-8.49-3.38a10.41,10.41,0,0,1-3.53-7.8h-2a12.41,12.41,0,0,0,4.15,9.24Zm26.81-24-.52-.85h0Zm5.22,0-.54.84h0Zm1,3.54h-1v3.64l1.86-3.13Zm3.24-3.24-.52-.85h0ZM85,111.74l-.75.65h0ZM85,133.82l-.76-.65h0Zm-12.12,2.34-.55.83h0Zm-3.06-3.36.91-.42-1.91.42Zm-1.2,16.68-.51-.86,0,0h0Zm-5.46,0,.59-.81h0Zm8.28-20.34.71-.71h0Zm7.38-.06.72.69h0Zm0-12.48-.72.69h0Zm-7.44-.18.69.72h0ZM63,147.8V110.9H61v36.9Zm0-36.9a1,1,0,0,1,.56-.9l-1.08-1.68A3,3,0,0,0,61,110.9Zm.54-.89a4,4,0,0,1,2.12-.51v-2a5.93,5.93,0,0,0-3.16.81Zm2.12-.51a3.69,3.69,0,0,1,2,.5l1.08-1.68a5.64,5.64,0,0,0-3.12-.82Zm2,.5a1,1,0,0,1,.56.9h2a3,3,0,0,0-1.48-2.58Zm.56.9v1.8h2v-1.8Zm1.86,2.31a8.58,8.58,0,0,1,2.91-2.9L72,108.61a10.71,10.71,0,0,0-3.57,3.58Zm2.9-2.9a8.2,8.2,0,0,1,4.34-1.17v-2A10.07,10.07,0,0,0,72,108.61Zm4.34-1.17a8.75,8.75,0,0,1,6.87,3.25l1.51-1.31a10.73,10.73,0,0,0-8.38-3.94Zm6.87,3.26a11.52,11.52,0,0,1,2.87,7.92h2a13.55,13.55,0,0,0-3.37-9.24Zm2.87,7.92v4.92h2v-4.92Zm0,4.92a11.8,11.8,0,0,1-2.94,7.93l1.52,1.3a13.83,13.83,0,0,0,3.42-9.23Zm-2.94,7.93a8.46,8.46,0,0,1-6.56,3.37v2a10.41,10.41,0,0,0,8.08-4.07Zm-6.56,3.37a7.94,7.94,0,0,1-4.27-1.23L72.3,137a9.91,9.91,0,0,0,5.33,1.53Zm-4.24-1.21a7.26,7.26,0,0,1-2.71-3l-1.82.84A9.42,9.42,0,0,0,72.28,137Zm-4.62-2.53v15h2v-15Zm0,15c0,.14-.06.43-.71.82l1,1.72a3,3,0,0,0,1.69-2.54Zm-.76.85a3.79,3.79,0,0,1-2.2.61v2a5.73,5.73,0,0,0,3.33-1Zm-2.2.61a3.48,3.48,0,0,1-2.11-.59l-1.18,1.62a5.5,5.5,0,0,0,3.29,1Zm-2.15-.61c-.54-.37-.63-.66-.63-.85H61a3,3,0,0,0,1.53,2.51Zm5.11-22.33a5.4,5.4,0,0,0,1.91,3.53l1.42-1.42c-1-1-1.33-1.73-1.33-2.11Zm1.91,3.53a6.07,6.07,0,0,0,4.37,1.91v-2a4.05,4.05,0,0,1-3-1.33Zm4.37,1.91a6,6,0,0,0,4.44-2l-1.44-1.38a4,4,0,0,1-3,1.37Zm4.45-2a6.5,6.5,0,0,0,1.89-4.52h-2A4.54,4.54,0,0,1,78,128.4Zm1.89-4.52v-4.92h-2v4.92Zm0-4.92a6.11,6.11,0,0,0-1.91-4.43l-1.42,1.42a4.12,4.12,0,0,1,1.33,3Zm-1.9-4.41a6.14,6.14,0,0,0-4.56-2v2a4.18,4.18,0,0,1,3.12,1.37Zm-4.56-2a6,6,0,0,0-4.29,1.78L72,117.14a4.08,4.08,0,0,1,2.91-1.22Zm-4.29,1.78a6.16,6.16,0,0,0-1.87,4.62h2A4.18,4.18,0,0,1,72,117.14Zm-1.87,4.62v6h2v-6Z" transform="translate(0 0.01)"/><path class="cls-5" d="M29,179.24v-4.92a11.3,11.3,0,0,1,3.84-8.52A12.84,12.84,0,0,1,42,162.14a13,13,0,0,1,9.12,3.6,11.29,11.29,0,0,1,3.9,8.58v4.92a11.54,11.54,0,0,1-3.9,8.58,13,13,0,0,1-18.24,0A11.54,11.54,0,0,1,29,179.24Zm7.74,0a5.48,5.48,0,0,0,1.56,3.84A4.91,4.91,0,0,0,42,184.76a4.84,4.84,0,0,0,3.66-1.68,5.38,5.38,0,0,0,1.62-3.84v-4.92a5.25,5.25,0,0,0-1.62-3.72A4.84,4.84,0,0,0,42,168.92a4.91,4.91,0,0,0-3.72,1.68,5.21,5.21,0,0,0-1.56,3.72Zm21.73,9.3V164.9a2,2,0,0,1,1-1.74,5.22,5.22,0,0,1,2.76-.66,4.25,4.25,0,0,1,2.46.66,2,2,0,0,1,1,1.74v2.46a9.65,9.65,0,0,1,3-3.66,7.08,7.08,0,0,1,4.38-1.56h1.86a2.45,2.45,0,0,1,1.92,1,3.43,3.43,0,0,1,.9,2.34,3.51,3.51,0,0,1-.9,2.4,2.45,2.45,0,0,1-1.92,1H73.06a6.25,6.25,0,0,0-4.86,2.46,9.73,9.73,0,0,0-2,6.42v10.74a2.13,2.13,0,0,1-1.2,1.68,5,5,0,0,1-2.76.78,4.76,4.76,0,0,1-2.7-.72A2.18,2.18,0,0,1,58.42,188.54Zm32.23,0V149.6a1.93,1.93,0,0,1,1.14-1.8,5.42,5.42,0,0,1,2.76-.66,5.83,5.83,0,0,1,3.3.78,9.7,9.7,0,0,1,2.52,3.36L112,173.66V149.54a1.93,1.93,0,0,1,1.14-1.8,6.65,6.65,0,0,1,5.52,0,1.93,1.93,0,0,1,1.14,1.8v39a2,2,0,0,1-1.2,1.8,5.3,5.3,0,0,1-2.7.66,4.69,4.69,0,0,1-4.5-2.46l-12.9-24.12v24.12a2,2,0,0,1-1.2,1.8,5.3,5.3,0,0,1-2.7.66,5.42,5.42,0,0,1-2.76-.66A2,2,0,0,1,90.65,188.54Zm32.85-9.3v-4.92a11.3,11.3,0,0,1,3.84-8.52,12.84,12.84,0,0,1,9.18-3.66,13,13,0,0,1,9.12,3.6,11.29,11.29,0,0,1,3.9,8.58v4.92a11.54,11.54,0,0,1-3.9,8.58,13,13,0,0,1-18.24,0A11.54,11.54,0,0,1,123.5,179.24Zm7.74,0a5.48,5.48,0,0,0,1.56,3.84,4.91,4.91,0,0,0,3.72,1.68,4.84,4.84,0,0,0,3.66-1.68,5.38,5.38,0,0,0,1.62-3.84v-4.92a5.25,5.25,0,0,0-1.62-3.72,4.84,4.84,0,0,0-3.66-1.68,4.91,4.91,0,0,0-3.72,1.68,5.21,5.21,0,0,0-1.56,3.72Zm21.66,2v-29.1a1.93,1.93,0,0,1,1.2-1.68,5,5,0,0,1,2.64-.72,5,5,0,0,1,2.7.72,1.93,1.93,0,0,1,1.2,1.68V162.5h7.08a1.64,1.64,0,0,1,1.44.84,3.9,3.9,0,0,1,0,4,1.64,1.64,0,0,1-1.44.84h-7.08v13.14a3.41,3.41,0,0,0,.72,2.46,3.86,3.86,0,0,0,2.64.72h2.34a3,3,0,0,1,2.4,1,3.22,3.22,0,0,1,.9,2.28,3.3,3.3,0,0,1-.9,2.34,3,3,0,0,1-2.4,1H164Q152.9,191,152.9,181.28Z" transform="translate(0 0.01)"/><path class="cls-6" d="M32.79,165.8l.69.73h0Zm18.3,22-.69-.72h0Zm-18.24,0,.7-.72h0Zm5.4-4.74-.73.68h0Zm7.38,0-.72-.69h0Zm0-12.48-.73.68h0Zm-7.38,0,.73.69h0ZM30,179.24v-4.92H28v4.92Zm0-4.92a10.3,10.3,0,0,1,3.53-7.79l-1.37-1.46A12.29,12.29,0,0,0,28,174.32Zm3.53-7.8A11.87,11.87,0,0,1,42,163.14v-2a13.85,13.85,0,0,0-9.87,3.94ZM42,163.14a12,12,0,0,1,8.45,3.34L51.77,165a14,14,0,0,0-9.8-3.87Zm8.45,3.34A10.27,10.27,0,0,1,54,174.32h2A12.26,12.26,0,0,0,51.77,165ZM54,174.32v4.92h2v-4.92Zm0,4.92a10.53,10.53,0,0,1-3.59,7.86l1.39,1.44a12.51,12.51,0,0,0,4.2-9.3ZM50.4,187.1A11.82,11.82,0,0,1,42,190.54v2a13.78,13.78,0,0,0,9.82-4ZM42,190.54a11.81,11.81,0,0,1-8.42-3.44l-1.39,1.44a13.77,13.77,0,0,0,9.81,4Zm-8.42-3.44a10.55,10.55,0,0,1-3.6-7.86H28a12.52,12.52,0,0,0,4.21,9.3Zm2.14-7.86a6.48,6.48,0,0,0,1.83,4.52L39,182.4a4.5,4.5,0,0,1-1.3-3.16Zm1.83,4.52a5.91,5.91,0,0,0,4.45,2v-2a3.89,3.89,0,0,1-3-1.36Zm4.45,2a5.86,5.86,0,0,0,4.4-2L44.9,182.4A3.84,3.84,0,0,1,42,183.76Zm4.38-2a6.34,6.34,0,0,0,1.9-4.53h-2a4.37,4.37,0,0,1-1.34,3.15Zm1.9-4.53v-4.92h-2v4.92Zm0-4.92a6.18,6.18,0,0,0-1.9-4.41l-1.44,1.38a4.27,4.27,0,0,1,1.34,3Zm-1.88-4.4a5.86,5.86,0,0,0-4.4-2v2a3.84,3.84,0,0,1,2.93,1.36Zm-4.4-2a5.91,5.91,0,0,0-4.45,2L39,171.28a3.89,3.89,0,0,1,3-1.36Zm-4.44,2a6.22,6.22,0,0,0-1.84,4.41h2a4.22,4.22,0,0,1,1.29-3Zm-1.84,4.41v4.92h2v-4.92Zm23.75-11.16-.52-.85h0Zm5.22,0-.57.82h0Zm1,4.2h-1l1.91.42Zm3-3.66.61.79h0Zm8.16-.54-.77.64h0Zm0,4.74-.75-.66h0Zm-8.64,3.48-.76-.65h0Zm-8.7,18.9-.59.81h0Zm-.08-1.74V164.9h-2v23.64Zm0-23.64A1,1,0,0,1,60,164l-1.09-1.68a3,3,0,0,0-1.47,2.58ZM60,164a4.31,4.31,0,0,1,2.24-.51v-2a6.12,6.12,0,0,0-3.28.81Zm2.24-.51a3.32,3.32,0,0,1,1.89.48l1.13-1.64a5.17,5.17,0,0,0-3-.84Zm1.91.5a1,1,0,0,1,.57.9h2a3,3,0,0,0-1.48-2.58Zm.57.9v2.46h2V164.9Zm1.91,2.88a8.61,8.61,0,0,1,2.7-3.29l-1.22-1.58a10.5,10.5,0,0,0-3.3,4Zm2.7-3.29a6.06,6.06,0,0,1,3.77-1.35v-2a8.09,8.09,0,0,0-5,1.77Zm3.77-1.35h1.86v-2H73.06Zm1.86,0a1.47,1.47,0,0,1,1.15.66l1.54-1.28a3.45,3.45,0,0,0-2.69-1.38Zm1.17.68a2.45,2.45,0,0,1,.65,1.68h2a4.45,4.45,0,0,0-1.15-3Zm.65,1.68a2.56,2.56,0,0,1-.65,1.74l1.5,1.32a4.51,4.51,0,0,0,1.15-3.06Zm-.67,1.76a1.47,1.47,0,0,1-1.15.66v2a3.45,3.45,0,0,0,2.69-1.38Zm-1.15.66H73.06v2h1.86Zm-1.86,0a7.23,7.23,0,0,0-5.62,2.81L69,172a5.24,5.24,0,0,1,4.1-2.11Zm-5.63,2.82a10.73,10.73,0,0,0-2.27,7.06h2A8.73,8.73,0,0,1,69,172Zm-2.27,7.06v10.74h2V177.8Zm0,10.74c0,.1-.06.39-.75.84l1.09,1.68a3.11,3.11,0,0,0,1.66-2.52Zm-.75.84a3.9,3.9,0,0,1-2.21.62v2a6,6,0,0,0,3.3-.94ZM62.2,190a3.85,3.85,0,0,1-2.15-.55l-1.11,1.66a5.72,5.72,0,0,0,3.26.89Zm-2.12-.53c-.57-.41-.66-.73-.66-.93h-2a3.16,3.16,0,0,0,1.49,2.55ZM91.79,147.8l.46.88h0l0,0Zm6.06.12.56-.82h0Zm2.52,3.36.89-.46h0ZM112,173.66l-.89.46,1.89-.46Zm6.66-25.92.46-.89Zm-.06,42.6-.49-.88h0Zm-7.2-1.8-.88.47h0Zm-12.9-24.12.88-.47-1.88.47Zm-1.2,25.92-.49-.88h0Zm-5.6-1.8V149.6h-2v38.94Zm0-38.94a.89.89,0,0,1,.13-.51,1.23,1.23,0,0,1,.47-.41l-.93-1.77a3.27,3.27,0,0,0-1.23,1.1,2.89,2.89,0,0,0-.44,1.59Zm.64-.94a4.44,4.44,0,0,1,2.26-.52v-2a6.45,6.45,0,0,0-3.26.79Zm2.26-.52a4.94,4.94,0,0,1,2.73.6l1.13-1.64a6.74,6.74,0,0,0-3.86-1Zm2.73.6a9,9,0,0,1,2.2,3l1.77-.94a10.4,10.4,0,0,0-2.84-3.71Zm2.2,3,11.58,22.38,1.77-.92-11.57-22.38ZM113,173.66V149.54h-2v24.12Zm0-24.12a.92.92,0,0,1,.13-.52,1.32,1.32,0,0,1,.47-.4l-.93-1.77a3.21,3.21,0,0,0-1.23,1.11,2.84,2.84,0,0,0-.44,1.58Zm.6-.92a5,5,0,0,1,2.3-.48v-2a6.89,6.89,0,0,0-3.23.71Zm2.3-.48a5,5,0,0,1,2.29.48l.93-1.77a6.85,6.85,0,0,0-3.22-.71Zm2.29.48a1.28,1.28,0,0,1,.48.4,1,1,0,0,1,.13.52h2a2.92,2.92,0,0,0-.44-1.58,3.24,3.24,0,0,0-1.24-1.11Zm.61.92v39h2v-39Zm0,39c0,.31-.13.62-.69.92l1,1.76a3,3,0,0,0,1.72-2.68Zm-.7.94a4.42,4.42,0,0,1-2.2.52v2a6.33,6.33,0,0,0,3.2-.79Zm-2.2.52a3.7,3.7,0,0,1-3.62-1.93l-1.76.94a5.67,5.67,0,0,0,5.38,3Zm-3.62-1.93L99.33,164l-1.76.94L110.47,189ZM97.45,164.42v24.12h2V164.42Zm0,24.12c0,.31-.13.62-.69.92l1,1.76a3,3,0,0,0,1.72-2.68Zm-.7.94a4.42,4.42,0,0,1-2.2.52v2a6.33,6.33,0,0,0,3.2-.79Zm-2.2.52a4.44,4.44,0,0,1-2.26-.52l-1,1.73a6.45,6.45,0,0,0,3.26.79Zm-2.26-.52a1,1,0,0,1-.64-.94h-2a3,3,0,0,0,1.64,2.67Zm35.05-23.68.69.73h0Zm18.3,22-.69-.72h0Zm-18.24,0,.69-.72h0Zm5.4-4.74-.73.68h0Zm7.38,0-.72-.69h0Zm0-12.48-.73.68h0Zm-7.38,0,.72.69h0Zm-8.3,8.64v-4.92h-2v4.92Zm0-4.92a10.3,10.3,0,0,1,3.53-7.79l-1.37-1.46a12.29,12.29,0,0,0-4.16,9.25Zm3.53-7.8a11.85,11.85,0,0,1,8.49-3.38v-2a13.85,13.85,0,0,0-9.87,3.94Zm8.49-3.38a12,12,0,0,1,8.44,3.34l1.36-1.47a14,14,0,0,0-9.8-3.87Zm8.44,3.34a10.28,10.28,0,0,1,3.58,7.84h2a12.26,12.26,0,0,0-4.22-9.31Zm3.58,7.84v4.92h2v-4.92Zm0,4.92A10.53,10.53,0,0,1,145,187.1l1.38,1.44a12.49,12.49,0,0,0,4.21-9.3ZM145,187.1a11.82,11.82,0,0,1-8.43,3.44v2a13.75,13.75,0,0,0,9.81-4Zm-8.43,3.44a11.83,11.83,0,0,1-8.43-3.44l-1.38,1.44a13.75,13.75,0,0,0,9.81,4Zm-8.43-3.44a10.57,10.57,0,0,1-3.59-7.86h-2a12.52,12.52,0,0,0,4.21,9.3Zm2.15-7.86a6.48,6.48,0,0,0,1.83,4.52l1.46-1.36a4.53,4.53,0,0,1-1.29-3.16Zm1.83,4.52a5.88,5.88,0,0,0,4.45,2v-2a3.93,3.93,0,0,1-3-1.36Zm4.45,2a5.84,5.84,0,0,0,4.39-2l-1.46-1.36a3.84,3.84,0,0,1-2.93,1.36Zm4.38-2a6.39,6.39,0,0,0,1.9-4.53h-2a4.37,4.37,0,0,1-1.34,3.15Zm1.9-4.53v-4.92h-2v4.92Zm0-4.92a6.22,6.22,0,0,0-1.9-4.41l-1.44,1.38a4.27,4.27,0,0,1,1.34,3Zm-1.89-4.4a5.84,5.84,0,0,0-4.39-2v2a3.84,3.84,0,0,1,2.93,1.36Zm-4.39-2a5.88,5.88,0,0,0-4.45,2l1.46,1.36a3.93,3.93,0,0,1,3-1.36Zm-4.44,2a6.22,6.22,0,0,0-1.84,4.41h2a4.25,4.25,0,0,1,1.28-3Zm-1.84,4.41v4.92h2v-4.92ZM154.1,150.5l.49.88h0Zm5.34,0-.53.85h0l0,0Zm1.2,12h-1v1h1Zm0,5.64v-1h-1v1Zm.72,15.6-.7.71h0l0,0Zm7.38,1.68-.75.66h0Zm0,4.62-.72-.68h0Zm-14.84-8.76v-29.1h-2v29.1Zm0-29.1c0-.19.08-.47.69-.8l-1-1.76a2.93,2.93,0,0,0-1.72,2.56Zm.72-.82a4,4,0,0,1,2.12-.58v-2a6.09,6.09,0,0,0-3.15.86Zm2.12-.58a3.91,3.91,0,0,1,2.17.57l1.07-1.7a6,6,0,0,0-3.24-.87Zm2.22.6c.61.33.68.61.68.8h2a2.92,2.92,0,0,0-1.71-2.56Zm.68.8V162.5h2V152.18Zm1,11.32h7.08v-2h-7.08Zm7.08,0a.66.66,0,0,1,.6.38L170,162.8a2.64,2.64,0,0,0-2.29-1.3Zm.6.38a2.61,2.61,0,0,1,.38,1.44h2a4.64,4.64,0,0,0-.69-2.52Zm.38,1.44a2.61,2.61,0,0,1-.38,1.44l1.69,1.08a4.64,4.64,0,0,0,.69-2.52Zm-.38,1.44a.66.66,0,0,1-.6.38v2a2.64,2.64,0,0,0,2.29-1.3Zm-.6.38h-7.08v2h7.08Zm-8.08,1v13.14h2V168.14Zm0,13.14a4.36,4.36,0,0,0,1,3.17l1.41-1.42a2.52,2.52,0,0,1-.43-1.75Zm1.05,3.2a4.84,4.84,0,0,0,3.31,1v-2a3,3,0,0,1-2-.45Zm3.31,1h2.34v-2H164Zm2.34,0a2,2,0,0,1,1.65.62l1.51-1.32a4,4,0,0,0-3.16-1.3Zm1.68.64a2.25,2.25,0,0,1,.62,1.6h2a4.18,4.18,0,0,0-1.17-3Zm.62,1.6a2.34,2.34,0,0,1-.62,1.66l1.45,1.36a4.25,4.25,0,0,0,1.17-3Zm-.65,1.68a2,2,0,0,1-1.65.62v2a4,4,0,0,0,3.16-1.3Zm-1.65.62H164v2h2.34ZM164,190c-3.57,0-6.07-.79-7.66-2.18s-2.44-3.49-2.44-6.54h-2c0,3.43,1,6.18,3.12,8s5.16,2.68,9,2.68Z" transform="translate(0 0.01)"/></g></g></svg>