<svg width="177" height="128" viewBox="0 0 177 128" fill="none" xmlns="http://www.w3.org/2000/svg">
<path d="M12.6 51.54V12.54C12.6 11.9 12.86 11.34 13.38 10.86C13.94 10.38 14.66 10.14 15.54 10.14H27.6C31.72 10.14 35.02 11.24 37.5 13.44C39.98 15.6 41.22 19 41.22 23.64V24C41.22 28.68 39.92 32.12 37.32 34.32C34.76 36.52 31.36 37.62 27.12 37.62H20.4V51.54C20.4 52.3 20 52.9 19.2 53.34C18.44 53.78 17.54 54 16.5 54C15.42 54 14.5 53.78 13.74 53.34C12.98 52.9 12.6 52.3 12.6 51.54ZM20.4 31.5H27.12C29.12 31.5 30.66 30.92 31.74 29.76C32.86 28.6 33.42 26.88 33.42 24.6V23.88C33.42 21.6 32.86 19.88 31.74 18.72C30.66 17.56 29.12 16.98 27.12 16.98H20.4V31.5ZM43.3055 42.36V27.96C43.3055 27.36 43.6855 26.8 44.4455 26.28C45.2455 25.76 46.1655 25.5 47.2055 25.5C48.2055 25.5 49.0855 25.76 49.8455 26.28C50.6455 26.8 51.0455 27.36 51.0455 27.96V42.36C51.0455 43.76 51.5655 45.02 52.6055 46.14C53.6455 47.22 54.8855 47.76 56.3255 47.76C57.7655 47.76 58.9855 47.22 59.9855 46.14C61.0255 45.02 61.5455 43.76 61.5455 42.36V27.9C61.5455 27.26 61.9255 26.7 62.6855 26.22C63.4855 25.74 64.4055 25.5 65.4455 25.5C66.5655 25.5 67.4855 25.74 68.2055 26.22C68.9255 26.7 69.2855 27.26 69.2855 27.9V42.36C69.2855 45.6 68.0055 48.44 65.4455 50.88C62.8855 53.32 59.8455 54.54 56.3255 54.54C52.8055 54.54 49.7455 53.32 47.1455 50.88C44.5855 48.44 43.3055 45.6 43.3055 42.36ZM73.6303 64.8V27.9C73.6303 27.18 73.9703 26.6 74.6503 26.16C75.3703 25.72 76.2503 25.5 77.2903 25.5C78.3303 25.5 79.1903 25.72 79.8703 26.16C80.5503 26.6 80.8903 27.18 80.8903 27.9V29.7C81.6503 28.42 82.7303 27.34 84.1303 26.46C85.5703 25.58 87.1903 25.14 88.9903 25.14C91.9903 25.14 94.5303 26.34 96.6103 28.74C98.6903 31.1 99.7303 33.96 99.7303 37.32V42.24C99.7303 45.48 98.6703 48.34 96.5503 50.82C94.4303 53.3 91.9903 54.54 89.2303 54.54C87.5103 54.54 85.9103 54.08 84.4303 53.16C82.9903 52.2 81.9703 51.08 81.3703 49.8V64.8C81.3703 65.44 80.9703 66 80.1703 66.48C79.4103 67 78.4903 67.26 77.4103 67.26C76.3303 67.26 75.4303 67 74.7103 66.48C73.9903 66 73.6303 65.44 73.6303 64.8ZM81.3703 43.32C81.3703 44.12 81.9103 45.06 82.9903 46.14C84.0703 47.22 85.2903 47.76 86.6503 47.76C88.0503 47.76 89.2903 47.2 90.3703 46.08C91.4503 44.92 91.9903 43.64 91.9903 42.24V37.32C91.9903 35.92 91.4503 34.68 90.3703 33.6C89.2903 32.48 88.0103 31.92 86.5303 31.92C85.1703 31.92 83.9703 32.42 82.9303 33.42C81.8903 34.42 81.3703 35.72 81.3703 37.32V43.32Z" fill="white"/>
<path d="M13.38 10.86L12.7292 10.1007L12.7152 10.1127L12.7017 10.1252L13.38 10.86ZM37.5 13.44L36.8364 14.1881L36.8432 14.1941L37.5 13.44ZM37.32 34.32L36.674 33.5566L36.6682 33.5616L37.32 34.32ZM20.4 37.62V36.62H19.4V37.62H20.4ZM19.2 53.34L18.7181 52.4638L18.7085 52.4691L18.699 52.4746L19.2 53.34ZM20.4 31.5H19.4V32.5H20.4V31.5ZM31.74 29.76L31.0206 29.0654L31.0143 29.0719L31.0081 29.0786L31.74 29.76ZM31.74 18.72L31.0081 19.4014L31.0143 19.4081L31.0206 19.4146L31.74 18.72ZM20.4 16.98V15.98H19.4V16.98H20.4ZM13.6 51.54V12.54H11.6V51.54H13.6ZM13.6 12.54C13.6 12.2103 13.7193 11.9077 14.0583 11.5948L12.7017 10.1252C12.0007 10.7723 11.6 11.5897 11.6 12.54H13.6ZM14.0308 11.6193C14.376 11.3234 14.8504 11.14 15.54 11.14V9.14C14.4696 9.14 13.504 9.43659 12.7292 10.1007L14.0308 11.6193ZM15.54 11.14H27.6V9.14H15.54V11.14ZM27.6 11.14C31.5372 11.14 34.5808 12.1871 36.8364 14.1881L38.1636 12.6919C35.4592 10.2929 31.9028 9.14 27.6 9.14V11.14ZM36.8432 14.1941C39.027 16.0961 40.22 19.1662 40.22 23.64H42.22C42.22 18.8338 40.933 15.1039 38.1568 12.6859L36.8432 14.1941ZM40.22 23.64V24H42.22V23.64H40.22ZM40.22 24C40.22 28.5014 38.9742 31.6104 36.6741 33.5566L37.9659 35.0834C40.8658 32.6296 42.22 28.8586 42.22 24H40.22ZM36.6682 33.5616C34.3324 35.569 31.184 36.62 27.12 36.62V38.62C31.536 38.62 35.1876 37.471 37.9718 35.0784L36.6682 33.5616ZM27.12 36.62H20.4V38.62H27.12V36.62ZM19.4 37.62V51.54H21.4V37.62H19.4ZM19.4 51.54C19.4 51.8555 19.2752 52.1574 18.7181 52.4638L19.6819 54.2162C20.7248 53.6426 21.4 52.7445 21.4 51.54H19.4ZM18.699 52.4746C18.1172 52.8114 17.3967 53 16.5 53V55C17.6833 55 18.7628 54.7486 19.701 54.2054L18.699 52.4746ZM16.5 53C15.5558 53 14.8174 52.8083 14.241 52.4746L13.239 54.2054C14.1826 54.7517 15.2842 55 16.5 55V53ZM14.241 52.4746C13.7325 52.1802 13.6 51.8815 13.6 51.54H11.6C11.6 52.7185 12.2275 53.6198 13.239 54.2054L14.241 52.4746ZM20.4 32.5H27.12V30.5H20.4V32.5ZM27.12 32.5C29.3202 32.5 31.1557 31.8551 32.4719 30.4414L31.0081 29.0786C30.1643 29.9849 28.9198 30.5 27.12 30.5V32.5ZM32.4594 30.4546C33.8225 29.0428 34.42 27.0312 34.42 24.6H32.42C32.42 26.7288 31.8975 28.1572 31.0206 29.0654L32.4594 30.4546ZM34.42 24.6V23.88H32.42V24.6H34.42ZM34.42 23.88C34.42 21.4488 33.8225 19.4372 32.4594 18.0254L31.0206 19.4146C31.8975 20.3228 32.42 21.7512 32.42 23.88H34.42ZM32.4719 18.0386C31.1557 16.6249 29.3202 15.98 27.12 15.98V17.98C28.9198 17.98 30.1643 18.4951 31.0081 19.4014L32.4719 18.0386ZM27.12 15.98H20.4V17.98H27.12V15.98ZM19.4 16.98V31.5H21.4V16.98H19.4ZM44.4455 26.28L43.9005 25.4416L43.8906 25.448L43.8808 25.4547L44.4455 26.28ZM49.8455 26.28L49.2808 27.1053L49.2906 27.112L49.3005 27.1184L49.8455 26.28ZM52.6055 46.14L51.8727 46.8204L51.8789 46.8271L51.8851 46.8336L52.6055 46.14ZM59.9855 46.14L59.2527 45.4595L59.2517 45.4606L59.9855 46.14ZM62.6855 26.22L62.171 25.3625L62.1612 25.3684L62.1515 25.3745L62.6855 26.22ZM68.2055 26.22L67.6508 27.052V27.052L68.2055 26.22ZM65.4455 50.88L66.1354 51.6039H66.1354L65.4455 50.88ZM47.1455 50.88L46.4555 51.6039L46.4612 51.6092L47.1455 50.88ZM44.3055 42.36V27.96H42.3055V42.36H44.3055ZM44.3055 27.96C44.3055 27.8393 44.3705 27.543 45.0102 27.1053L43.8808 25.4547C43.0004 26.057 42.3055 26.8807 42.3055 27.96H44.3055ZM44.9905 27.1184C45.6137 26.7133 46.3408 26.5 47.2055 26.5V24.5C45.9901 24.5 44.8773 24.8067 43.9005 25.4416L44.9905 27.1184ZM47.2055 26.5C48.0221 26.5 48.7015 26.7089 49.2808 27.1053L50.4102 25.4547C49.4695 24.8111 48.3888 24.5 47.2055 24.5V26.5ZM49.3005 27.1184C49.9905 27.567 50.0455 27.8635 50.0455 27.96H52.0455C52.0455 26.8565 51.3004 26.033 50.3905 25.4416L49.3005 27.1184ZM50.0455 27.96V42.36H52.0455V27.96H50.0455ZM50.0455 42.36C50.0455 44.0365 50.6781 45.534 51.8727 46.8204L53.3383 45.4595C52.4529 44.506 52.0455 43.4835 52.0455 42.36H50.0455ZM51.8851 46.8336C53.1049 48.1003 54.6014 48.76 56.3255 48.76V46.76C55.1695 46.76 54.186 46.3397 53.3258 45.4464L51.8851 46.8336ZM56.3255 48.76C58.051 48.76 59.5347 48.0987 60.7192 46.8194L59.2517 45.4606C58.4362 46.3413 57.48 46.76 56.3255 46.76V48.76ZM60.7183 46.8204C61.9129 45.534 62.5455 44.0365 62.5455 42.36H60.5455C60.5455 43.4835 60.1381 44.506 59.2527 45.4595L60.7183 46.8204ZM62.5455 42.36V27.9H60.5455V42.36H62.5455ZM62.5455 27.9C62.5455 27.7319 62.6207 27.4436 63.2195 27.0655L62.1515 25.3745C61.2302 25.9564 60.5455 26.7881 60.5455 27.9H62.5455ZM63.2 27.0775C63.8272 26.7011 64.5654 26.5 65.4455 26.5V24.5C64.2456 24.5 63.1437 24.7789 62.171 25.3625L63.2 27.0775ZM65.4455 26.5C66.4256 26.5 67.1371 26.7096 67.6508 27.052L68.7602 25.3879C67.8338 24.7704 66.7054 24.5 65.4455 24.5V26.5ZM67.6508 27.052C68.2006 27.4186 68.2855 27.7061 68.2855 27.9H70.2855C70.2855 26.8139 69.6504 25.9814 68.7602 25.3879L67.6508 27.052ZM68.2855 27.9V42.36H70.2855V27.9H68.2855ZM68.2855 42.36C68.2855 45.2999 67.1376 47.8857 64.7555 50.1561L66.1354 51.6039C68.8733 48.9943 70.2855 45.9001 70.2855 42.36H68.2855ZM64.7555 50.1561C62.3805 52.4198 59.5872 53.54 56.3255 53.54V55.54C60.1037 55.54 63.3904 54.2202 66.1354 51.6039L64.7555 50.1561ZM56.3255 53.54C53.0633 53.54 50.2471 52.4193 47.8298 50.1508L46.4612 51.6092C49.2439 54.2207 52.5476 55.54 56.3255 55.54V53.54ZM47.8354 50.1561C45.4533 47.8857 44.3055 45.2999 44.3055 42.36H42.3055C42.3055 45.9001 43.7176 48.9943 46.4555 51.6039L47.8354 50.1561ZM74.6503 26.16L74.1289 25.3067L74.1179 25.3134L74.1071 25.3204L74.6503 26.16ZM79.8703 26.16L79.3271 26.9996L79.8703 26.16ZM80.8903 29.7H79.8903V33.3429L81.7502 30.2105L80.8903 29.7ZM84.1303 26.46L83.6088 25.6066L83.5981 25.6134L84.1303 26.46ZM96.6103 28.74L95.8546 29.395L95.8601 29.4012L96.6103 28.74ZM96.5503 50.82L95.7902 50.1702L96.5503 50.82ZM84.4303 53.16L83.8756 53.9921L83.8889 54.0009L83.9024 54.0093L84.4303 53.16ZM81.3703 49.8L82.2758 49.3756L80.3703 49.8H81.3703ZM80.1703 66.48L79.6558 65.6225L79.6302 65.6379L79.6056 65.6547L80.1703 66.48ZM74.7103 66.48L75.2958 65.6693L75.2806 65.6583L75.265 65.6479L74.7103 66.48ZM82.9903 46.14L83.6974 45.4329L82.9903 46.14ZM90.3703 46.08L91.0902 46.7741L91.0962 46.7678L91.1022 46.7614L90.3703 46.08ZM90.3703 33.6L89.6505 34.2941L89.6568 34.3007L89.6632 34.3071L90.3703 33.6ZM82.9303 33.42L83.6234 34.1408L82.9303 33.42ZM74.6303 64.8V27.9H72.6303V64.8H74.6303ZM74.6303 27.9C74.6303 27.5663 74.7564 27.2824 75.1936 26.9996L74.1071 25.3204C73.1842 25.9176 72.6303 26.7937 72.6303 27.9H74.6303ZM75.1718 27.0133C75.7019 26.6893 76.3916 26.5 77.2903 26.5V24.5C76.109 24.5 75.0387 24.7507 74.1289 25.3067L75.1718 27.0133ZM77.2903 26.5C78.1917 26.5 78.8491 26.6903 79.3271 26.9996L80.4136 25.3204C79.5316 24.7497 78.4689 24.5 77.2903 24.5V26.5ZM79.3271 26.9996C79.7642 27.2824 79.8903 27.5663 79.8903 27.9H81.8903C81.8903 26.7937 81.3364 25.9176 80.4136 25.3204L79.3271 26.9996ZM79.8903 27.9V29.7H81.8903V27.9H79.8903ZM81.7502 30.2105C82.4205 29.0815 83.3817 28.1117 84.6625 27.3066L83.5981 25.6134C82.0789 26.5683 80.8801 27.7585 80.0305 29.1895L81.7502 30.2105ZM84.6518 27.3133C85.9242 26.5357 87.3616 26.14 88.9903 26.14V24.14C87.0191 24.14 85.2164 24.6243 83.6089 25.6067L84.6518 27.3133ZM88.9903 26.14C91.6815 26.14 93.9519 27.1995 95.8546 29.3949L97.366 28.0851C95.1087 25.4805 92.2991 24.14 88.9903 24.14V26.14ZM95.8601 29.4012C97.7676 31.5655 98.7303 34.1854 98.7303 37.32H100.73C100.73 33.7346 99.613 30.6345 97.3605 28.0788L95.8601 29.4012ZM98.7303 37.32V42.24H100.73V37.32H98.7303ZM98.7303 42.24C98.7303 45.2399 97.7566 47.8699 95.7902 50.1702L97.3104 51.4698C99.5841 48.8101 100.73 45.7201 100.73 42.24H98.7303ZM95.7902 50.1702C93.822 52.4726 91.6439 53.54 89.2303 53.54V55.54C92.3368 55.54 95.0386 54.1274 97.3104 51.4698L95.7902 50.1702ZM89.2303 53.54C87.6995 53.54 86.282 53.1336 84.9582 52.3107L83.9024 54.0093C85.5386 55.0264 87.3211 55.54 89.2303 55.54V53.54ZM84.985 52.3279C83.6629 51.4466 82.7826 50.4567 82.2758 49.3756L80.4649 50.2244C81.1581 51.7033 82.3177 52.9534 83.8756 53.9921L84.985 52.3279ZM80.3703 49.8V64.8H82.3703V49.8H80.3703ZM80.3703 64.8C80.3703 64.943 80.3052 65.2329 79.6558 65.6225L80.6848 67.3375C81.6354 66.7671 82.3703 65.937 82.3703 64.8H80.3703ZM79.6056 65.6547C79.0392 66.0423 78.3245 66.26 77.4103 66.26V68.26C78.6562 68.26 79.7815 67.9577 80.735 67.3053L79.6056 65.6547ZM77.4103 66.26C76.4942 66.26 75.8113 66.0417 75.2958 65.6693L74.1248 67.2907C75.0493 67.9583 76.1664 68.26 77.4103 68.26V66.26ZM75.265 65.6479C74.7152 65.2814 74.6303 64.9939 74.6303 64.8H72.6303C72.6303 65.8861 73.2654 66.7186 74.1556 67.312L75.265 65.6479ZM80.3703 43.32C80.3703 44.5417 81.1671 45.731 82.2832 46.8471L83.6974 45.4329C82.6536 44.389 82.3703 43.6983 82.3703 43.32H80.3703ZM82.2832 46.8471C83.5255 48.0894 84.9915 48.76 86.6503 48.76V46.76C85.5892 46.76 84.6151 46.3506 83.6974 45.4329L82.2832 46.8471ZM86.6503 48.76C88.3534 48.76 89.8448 48.0656 91.0902 46.7741L89.6505 45.3859C88.7358 46.3344 87.7472 46.76 86.6503 46.76V48.76ZM91.1022 46.7614C92.33 45.4427 92.9903 43.9267 92.9903 42.24H90.9903C90.9903 43.3533 90.5706 44.3973 89.6384 45.3986L91.1022 46.7614ZM92.9903 42.24V37.32H90.9903V42.24H92.9903ZM92.9903 37.32C92.9903 35.6293 92.3262 34.1416 91.0774 32.8929L89.6632 34.3071C90.5745 35.2184 90.9903 36.2107 90.9903 37.32H92.9903ZM91.0902 32.9059C89.8325 31.6016 88.297 30.92 86.5303 30.92V32.92C87.7236 32.92 88.7481 33.3584 89.6505 34.2941L91.0902 32.9059ZM86.5303 30.92C84.895 30.92 83.451 31.5321 82.2372 32.6992L83.6234 34.1408C84.4896 33.3079 85.4456 32.92 86.5303 32.92V30.92ZM82.2372 32.6992C80.9787 33.9092 80.3703 35.4807 80.3703 37.32H82.3703C82.3703 35.9593 82.8019 34.9308 83.6234 34.1408L82.2372 32.6992ZM80.3703 37.32V43.32H82.3703V37.32H80.3703Z" fill="#F8D59B"/>
<path d="M129.34 55.6722C124.703 55.6722 120.337 53.8676 117.061 50.5839C113.777 47.3074 111.972 42.9411 111.972 38.3042C111.972 33.667 113.777 29.3007 117.061 26.0242C120.337 22.7409 124.703 20.9363 129.34 20.9363C133.978 20.9363 138.344 22.7409 141.62 26.0242C144.904 29.3078 146.709 33.667 146.709 38.3042C146.709 42.9411 144.904 47.3074 141.62 50.5839C138.344 53.8676 133.978 55.6722 129.34 55.6722ZM129.34 21.9772C124.981 21.9772 120.879 23.678 117.797 26.7601C114.714 29.8422 113.014 33.9447 113.014 38.3042C113.014 42.6634 114.714 46.7658 117.797 49.848C120.879 52.9301 124.981 54.6308 129.34 54.6308C133.7 54.6308 137.802 52.9301 140.884 49.848C143.967 46.7658 145.667 42.6634 145.667 38.3042C145.667 33.9447 143.967 29.8422 140.884 26.7601C137.802 23.678 133.7 21.9772 129.34 21.9772Z" fill="white"/>
<path d="M120.537 45.762C120.589 47.0498 121.227 48.2283 122.289 48.9942C123.391 49.7897 124.771 50.0311 126.074 49.6558L126.578 49.5106C127.533 49.2361 128.515 49.0981 129.498 49.0981C130.481 49.0981 131.463 49.2356 132.418 49.5106L132.922 49.6558C134.225 50.0311 135.605 49.7897 136.707 48.9942C137.769 48.2283 138.408 47.0498 138.459 45.762C138.501 44.6955 138.156 43.6832 137.459 42.8344L132.89 37.2624C132.053 36.2424 130.817 35.6575 129.498 35.6575C128.179 35.6575 126.943 36.2424 126.106 37.2619V37.2624L121.537 42.8344C120.84 43.6832 120.495 44.6955 120.537 45.762Z" fill="white"/>
<path d="M120.318 41.0532C121.887 40.7926 122.869 38.8087 122.507 36.6314C122.329 35.5622 121.858 34.6109 121.18 33.9524C120.623 33.4122 119.985 33.1265 119.35 33.1265C119.235 33.1265 119.12 33.1359 119.005 33.1547C117.436 33.4154 116.455 35.3987 116.817 37.5765C117.178 39.7538 118.749 41.313 120.318 41.0532Z" fill="white"/>
<path d="M126.071 34.8187C127.64 34.5584 128.621 32.5746 128.26 30.3973C128.082 29.3281 127.61 28.3767 126.932 27.7178C126.376 27.1781 125.737 26.8923 125.102 26.8923C124.987 26.8923 124.872 26.9017 124.758 26.9206C123.189 27.1812 122.207 29.1646 122.569 31.3424C122.931 33.5197 124.501 35.0789 126.071 34.8187Z" fill="white"/>
<path d="M138.678 41.0534C140.246 41.3136 141.817 39.754 142.179 37.5767C142.541 35.3989 141.559 33.4155 139.99 33.1548C139.245 33.0312 138.473 33.3143 137.816 33.9526C137.138 34.611 136.666 35.5624 136.489 36.6316C136.127 38.8089 137.109 40.7927 138.678 41.0534Z" fill="white"/>
<path d="M132.925 34.8186C134.494 35.0793 136.065 33.5196 136.427 31.3423C136.789 29.1645 135.807 27.1811 134.238 26.9205C133.493 26.7968 132.721 27.0799 132.064 27.7177C131.386 28.3766 130.914 29.328 130.736 30.3972C130.375 32.5745 131.356 34.5583 132.925 34.8186Z" fill="white"/>
<path d="M153 51.54V27.9C153 27.18 153.34 26.6 154.02 26.16C154.74 25.72 155.66 25.5 156.78 25.5C157.78 25.5 158.6 25.72 159.24 26.16C159.92 26.6 160.26 27.18 160.26 27.9V30.36C160.9 28.96 161.9 27.74 163.26 26.7C164.62 25.66 166.08 25.14 167.64 25.14H169.5C170.22 25.14 170.86 25.48 171.42 26.16C172.02 26.84 172.32 27.62 172.32 28.5C172.32 29.42 172.02 30.22 171.42 30.9C170.86 31.58 170.22 31.92 169.5 31.92H167.64C165.8 31.92 164.18 32.74 162.78 34.38C161.42 36.02 160.74 38.16 160.74 40.8V51.54C160.74 52.14 160.34 52.7 159.54 53.22C158.74 53.74 157.82 54 156.78 54C155.7 54 154.8 53.76 154.08 53.28C153.36 52.76 153 52.18 153 51.54Z" fill="white"/>
<path d="M154.02 26.16L153.499 25.3067L153.488 25.3134L153.477 25.3204L154.02 26.16ZM159.24 26.16L158.673 26.984L158.685 26.992L158.697 26.9996L159.24 26.16ZM160.26 30.36H159.26L161.169 30.7758L160.26 30.36ZM163.26 26.7L163.867 27.4944L163.867 27.4944L163.26 26.7ZM171.42 26.16L170.648 26.7957L170.659 26.8089L170.67 26.8216L171.42 26.16ZM171.42 30.9L170.67 30.2384L170.659 30.2511L170.648 30.2643L171.42 30.9ZM162.78 34.38L162.019 33.7307L162.015 33.7362L162.01 33.7417L162.78 34.38ZM154.08 53.28L153.495 54.0907L153.51 54.1017L153.525 54.112L154.08 53.28ZM154 51.54V27.9H152V51.54H154ZM154 27.9C154 27.5663 154.126 27.2824 154.563 26.9996L153.477 25.3204C152.554 25.9176 152 26.7937 152 27.9H154ZM154.541 27.0133C155.061 26.6958 155.785 26.5 156.78 26.5V24.5C155.535 24.5 154.419 24.7442 153.499 25.3067L154.541 27.0133ZM156.78 26.5C157.636 26.5 158.242 26.6876 158.673 26.984L159.807 25.336C158.958 24.7524 157.924 24.5 156.78 24.5V26.5ZM158.697 26.9996C159.134 27.2824 159.26 27.5663 159.26 27.9H161.26C161.26 26.7937 160.706 25.9176 159.783 25.3204L158.697 26.9996ZM159.26 27.9V30.36H161.26V27.9H159.26ZM161.169 30.7758C161.734 29.5409 162.623 28.4462 163.867 27.4944L162.653 25.9056C161.177 27.0338 160.066 28.3791 159.351 29.9442L161.169 30.7758ZM163.867 27.4944C165.071 26.574 166.321 26.14 167.64 26.14V24.14C165.839 24.14 164.169 24.746 162.653 25.9056L163.867 27.4944ZM167.64 26.14H169.5V24.14H167.64V26.14ZM169.5 26.14C169.855 26.14 170.231 26.2897 170.648 26.7957L172.192 25.5243C171.489 24.6703 170.585 24.14 169.5 24.14V26.14ZM170.67 26.8216C171.114 27.325 171.32 27.8717 171.32 28.5H173.32C173.32 27.3683 172.926 26.355 172.17 25.4984L170.67 26.8216ZM171.32 28.5C171.32 29.1802 171.106 29.744 170.67 30.2384L172.17 31.5616C172.934 30.696 173.32 29.6598 173.32 28.5H171.32ZM170.648 30.2643C170.231 30.7703 169.855 30.92 169.5 30.92V32.92C170.585 32.92 171.489 32.3897 172.192 31.5357L170.648 30.2643ZM169.5 30.92H167.64V32.92H169.5V30.92ZM167.64 30.92C165.456 30.92 163.573 31.9105 162.019 33.7307L163.541 35.0293C164.787 33.5695 166.144 32.92 167.64 32.92V30.92ZM162.01 33.7417C160.468 35.6009 159.74 37.9844 159.74 40.8H161.74C161.74 38.3356 162.372 36.4391 163.55 35.0183L162.01 33.7417ZM159.74 40.8V51.54H161.74V40.8H159.74ZM159.74 51.54C159.74 51.6365 159.685 51.933 158.995 52.3816L160.085 54.0584C160.995 53.467 161.74 52.6435 161.74 51.54H159.74ZM158.995 52.3816C158.372 52.7867 157.645 53 156.78 53V55C157.995 55 159.108 54.6933 160.085 54.0584L158.995 52.3816ZM156.78 53C155.848 53 155.154 52.7941 154.635 52.4479L153.525 54.112C154.446 54.7259 155.552 55 156.78 55V53ZM154.665 52.4693C154.097 52.0589 154 51.745 154 51.54H152C152 52.615 152.623 53.4611 153.495 54.0907L154.665 52.4693Z" fill="#F8D59B"/>
<path d="M14.1117 111.54V72.6C14.1117 71.8 14.4917 71.2 15.2517 70.8C16.0117 70.36 16.9317 70.14 18.0117 70.14C19.4517 70.14 20.5517 70.4 21.3117 70.92C22.0717 71.44 22.9117 72.56 23.8317 74.28L35.4117 96.66V72.54C35.4117 71.74 35.7917 71.14 36.5517 70.74C37.3117 70.34 38.2317 70.14 39.3117 70.14C40.3917 70.14 41.3117 70.34 42.0717 70.74C42.8317 71.14 43.2117 71.74 43.2117 72.54V111.54C43.2117 112.3 42.8117 112.9 42.0117 113.34C41.2517 113.78 40.3517 114 39.3117 114C37.1917 114 35.6917 113.18 34.8117 111.54L21.9117 87.42V111.54C21.9117 112.3 21.5117 112.9 20.7117 113.34C19.9517 113.78 19.0517 114 18.0117 114C16.9317 114 16.0117 113.78 15.2517 113.34C14.4917 112.9 14.1117 112.3 14.1117 111.54ZM46.9669 102.24V97.32C46.9669 94.04 48.2469 91.2 50.8069 88.8C53.3669 86.36 56.4269 85.14 59.9869 85.14C63.4669 85.14 66.5069 86.34 69.1069 88.74C71.7069 91.14 73.0069 94 73.0069 97.32V102.24C73.0069 105.48 71.7069 108.34 69.1069 110.82C66.5069 113.3 63.4669 114.54 59.9869 114.54C56.5069 114.54 53.4669 113.3 50.8669 110.82C48.2669 108.34 46.9669 105.48 46.9669 102.24ZM54.7069 102.24C54.7069 103.68 55.2269 104.96 56.2669 106.08C57.3069 107.2 58.5469 107.76 59.9869 107.76C61.3869 107.76 62.6069 107.2 63.6469 106.08C64.7269 104.96 65.2669 103.68 65.2669 102.24V97.32C65.2669 95.96 64.7269 94.72 63.6469 93.6C62.6069 92.48 61.3869 91.92 59.9869 91.92C58.5469 91.92 57.3069 92.48 56.2669 93.6C55.2269 94.68 54.7069 95.92 54.7069 97.32V102.24ZM87.5414 111.54V72.54C87.5414 71.9 87.8014 71.34 88.3214 70.86C88.8814 70.38 89.6014 70.14 90.4814 70.14H102.541C106.661 70.14 109.961 71.24 112.441 73.44C114.921 75.6 116.161 79 116.161 83.64V84C116.161 88.68 114.861 92.12 112.261 94.32C109.701 96.52 106.301 97.62 102.061 97.62H95.3414V111.54C95.3414 112.3 94.9414 112.9 94.1414 113.34C93.3814 113.78 92.4814 114 91.4414 114C90.3614 114 89.4414 113.78 88.6814 113.34C87.9214 112.9 87.5414 112.3 87.5414 111.54ZM95.3414 91.5H102.061C104.061 91.5 105.601 90.92 106.681 89.76C107.801 88.6 108.361 86.88 108.361 84.6V83.88C108.361 81.6 107.801 79.88 106.681 78.72C105.601 77.56 104.061 76.98 102.061 76.98H95.3414V91.5ZM118.247 102.36V87.96C118.247 87.36 118.627 86.8 119.387 86.28C120.187 85.76 121.107 85.5 122.147 85.5C123.147 85.5 124.027 85.76 124.787 86.28C125.587 86.8 125.987 87.36 125.987 87.96V102.36C125.987 103.76 126.507 105.02 127.547 106.14C128.587 107.22 129.827 107.76 131.267 107.76C132.707 107.76 133.927 107.22 134.927 106.14C135.967 105.02 136.487 103.76 136.487 102.36V87.9C136.487 87.26 136.867 86.7 137.627 86.22C138.427 85.74 139.347 85.5 140.387 85.5C141.507 85.5 142.427 85.74 143.147 86.22C143.867 86.7 144.227 87.26 144.227 87.9V102.36C144.227 105.6 142.947 108.44 140.387 110.88C137.827 113.32 134.787 114.54 131.267 114.54C127.747 114.54 124.687 113.32 122.087 110.88C119.527 108.44 118.247 105.6 118.247 102.36ZM148.572 124.8V87.9C148.572 87.18 148.912 86.6 149.592 86.16C150.312 85.72 151.192 85.5 152.232 85.5C153.272 85.5 154.132 85.72 154.812 86.16C155.492 86.6 155.832 87.18 155.832 87.9V89.7C156.592 88.42 157.672 87.34 159.072 86.46C160.512 85.58 162.132 85.14 163.932 85.14C166.932 85.14 169.472 86.34 171.552 88.74C173.632 91.1 174.672 93.96 174.672 97.32V102.24C174.672 105.48 173.612 108.34 171.492 110.82C169.372 113.3 166.932 114.54 164.172 114.54C162.452 114.54 160.852 114.08 159.372 113.16C157.932 112.2 156.912 111.08 156.312 109.8V124.8C156.312 125.44 155.912 126 155.112 126.48C154.352 127 153.432 127.26 152.352 127.26C151.272 127.26 150.372 127 149.652 126.48C148.932 126 148.572 125.44 148.572 124.8ZM156.312 103.32C156.312 104.12 156.852 105.06 157.932 106.14C159.012 107.22 160.232 107.76 161.592 107.76C162.992 107.76 164.232 107.2 165.312 106.08C166.392 104.92 166.932 103.64 166.932 102.24V97.32C166.932 95.92 166.392 94.68 165.312 93.6C164.232 92.48 162.952 91.92 161.472 91.92C160.112 91.92 158.912 92.42 157.872 93.42C156.832 94.42 156.312 95.72 156.312 97.32V103.32Z" fill="white"/>
<path d="M15.2517 70.8L15.7175 71.6849L15.7353 71.6755L15.7528 71.6654L15.2517 70.8ZM21.3117 70.92L21.8764 70.0947L21.8764 70.0947L21.3117 70.92ZM23.8317 74.28L24.72 73.8204L24.7135 73.8083L23.8317 74.28ZM35.4117 96.66L34.5236 97.1196L36.4117 96.66H35.4117ZM42.0717 70.74L42.5375 69.8551L42.0717 70.74ZM42.0117 113.34L41.5298 112.464L41.5202 112.469L41.5107 112.475L42.0117 113.34ZM34.8117 111.54L33.9299 112.012L33.9306 112.013L34.8117 111.54ZM21.9117 87.42L22.7935 86.9484L20.9117 87.42H21.9117ZM20.7117 113.34L20.2298 112.464L20.2202 112.469L20.2107 112.475L20.7117 113.34ZM15.1117 111.54V72.6H13.1117V111.54H15.1117ZM15.1117 72.6C15.1117 72.3648 15.1653 72.2054 15.2415 72.085C15.3202 71.9609 15.4599 71.8205 15.7175 71.6849L14.786 69.9151C14.2835 70.1795 13.8533 70.5391 13.5519 71.0149C13.2481 71.4946 13.1117 72.0352 13.1117 72.6H15.1117ZM15.7528 71.6654C16.3291 71.3317 17.0675 71.14 18.0117 71.14V69.14C16.7959 69.14 15.6943 69.3883 14.7507 69.9346L15.7528 71.6654ZM18.0117 71.14C19.3553 71.14 20.223 71.3867 20.747 71.7453L21.8764 70.0947C20.8805 69.4133 19.5481 69.14 18.0117 69.14V71.14ZM20.747 71.7453C21.2932 72.119 22.039 73.0487 22.9499 74.7516L24.7135 73.8083C23.7844 72.0713 22.8502 70.761 21.8764 70.0947L20.747 71.7453ZM22.9436 74.7395L34.5236 97.1196L36.2999 96.2004L24.7199 73.8204L22.9436 74.7395ZM36.4117 96.66V72.54H34.4117V96.66H36.4117ZM36.4117 72.54C36.4117 72.3048 36.4653 72.1454 36.5415 72.0251C36.6202 71.9009 36.7599 71.7605 37.0175 71.6249L36.086 69.8551C35.5835 70.1195 35.1533 70.4791 34.8519 70.9549C34.5481 71.4346 34.4117 71.9752 34.4117 72.54H36.4117ZM37.0175 71.6249C37.6016 71.3175 38.3531 71.14 39.3117 71.14V69.14C38.1103 69.14 37.0219 69.3625 36.086 69.8551L37.0175 71.6249ZM39.3117 71.14C40.2703 71.14 41.0219 71.3175 41.606 71.6249L42.5375 69.8551C41.6016 69.3625 40.5131 69.14 39.3117 69.14V71.14ZM41.606 71.6249C41.8635 71.7605 42.0033 71.9009 42.0819 72.0251C42.1581 72.1454 42.2117 72.3048 42.2117 72.54H44.2117C44.2117 71.9752 44.0753 71.4346 43.7715 70.9549C43.4702 70.4791 43.0399 70.1195 42.5375 69.8551L41.606 71.6249ZM42.2117 72.54V111.54H44.2117V72.54H42.2117ZM42.2117 111.54C42.2117 111.855 42.0869 112.157 41.5298 112.464L42.4936 114.216C43.5365 113.643 44.2117 112.745 44.2117 111.54H42.2117ZM41.5107 112.475C40.9289 112.811 40.2084 113 39.3117 113V115C40.4951 115 41.5746 114.749 42.5128 114.205L41.5107 112.475ZM39.3117 113C37.4978 113 36.3711 112.331 35.6929 111.067L33.9306 112.013C35.0124 114.029 36.8857 115 39.3117 115V113ZM35.6935 111.068L22.7935 86.9484L21.0299 87.8916L33.9299 112.012L35.6935 111.068ZM20.9117 87.42V111.54H22.9117V87.42H20.9117ZM20.9117 111.54C20.9117 111.855 20.7869 112.157 20.2298 112.464L21.1936 114.216C22.2365 113.643 22.9117 112.745 22.9117 111.54H20.9117ZM20.2107 112.475C19.6289 112.811 18.9084 113 18.0117 113V115C19.1951 115 20.2746 114.749 21.2128 114.205L20.2107 112.475ZM18.0117 113C17.0675 113 16.3291 112.808 15.7528 112.475L14.7507 114.205C15.6943 114.752 16.7959 115 18.0117 115V113ZM15.7528 112.475C15.2442 112.18 15.1117 111.882 15.1117 111.54H13.1117C13.1117 112.718 13.7392 113.62 14.7507 114.205L15.7528 112.475ZM50.8069 88.8L51.4908 89.5296L51.4968 89.5239L50.8069 88.8ZM69.1069 110.82L68.4167 110.096L69.1069 110.82ZM50.8669 110.82L51.5571 110.096L50.8669 110.82ZM56.2669 106.08L55.5341 106.76L56.2669 106.08ZM63.6469 106.08L62.927 105.386L62.9205 105.393L62.9141 105.4L63.6469 106.08ZM63.6469 93.6L62.9141 94.2804L62.9205 94.2874L62.927 94.2941L63.6469 93.6ZM56.2669 93.6L56.9872 94.2936L56.9935 94.2871L56.9997 94.2804L56.2669 93.6ZM47.9669 102.24V97.32H45.9669V102.24H47.9669ZM47.9669 97.32C47.9669 94.3373 49.1167 91.7553 51.4908 89.5295L50.1229 88.0705C47.377 90.6447 45.9669 93.7427 45.9669 97.32H47.9669ZM51.4968 89.5239C53.8695 87.2624 56.6819 86.14 59.9869 86.14V84.14C56.1719 84.14 52.8643 85.4576 50.1169 88.0761L51.4968 89.5239ZM59.9869 86.14C63.2108 86.14 66.0099 87.2421 68.4286 89.4748L69.7852 88.0052C67.0039 85.4379 63.7229 84.14 59.9869 84.14V86.14ZM68.4286 89.4748C70.8387 91.6995 72.0069 94.2991 72.0069 97.32H74.0069C74.0069 93.7009 72.5751 90.5805 69.7852 88.0052L68.4286 89.4748ZM72.0069 97.32V102.24H74.0069V97.32H72.0069ZM72.0069 102.24C72.0069 105.175 70.8426 107.782 68.4167 110.096L69.7971 111.544C72.5711 108.898 74.0069 105.785 74.0069 102.24H72.0069ZM68.4167 110.096C65.996 112.405 63.2007 113.54 59.9869 113.54V115.54C63.733 115.54 67.0178 114.195 69.7971 111.544L68.4167 110.096ZM59.9869 113.54C56.773 113.54 53.9778 112.405 51.5571 110.096L50.1767 111.544C52.956 114.195 56.2407 115.54 59.9869 115.54V113.54ZM51.5571 110.096C49.1311 107.782 47.9669 105.175 47.9669 102.24H45.9669C45.9669 105.785 47.4026 108.898 50.1767 111.544L51.5571 110.096ZM53.7069 102.24C53.7069 103.949 54.3339 105.468 55.5341 106.76L56.9997 105.4C56.1199 104.452 55.7069 103.411 55.7069 102.24H53.7069ZM55.5341 106.76C56.7503 108.07 58.2502 108.76 59.9869 108.76V106.76C58.8436 106.76 57.8635 106.33 56.9997 105.4L55.5341 106.76ZM59.9869 108.76C61.6921 108.76 63.1698 108.063 64.3797 106.76L62.9141 105.4C62.044 106.337 61.0816 106.76 59.9869 106.76V108.76ZM64.3667 106.774C65.6106 105.484 66.2669 103.961 66.2669 102.24H64.2669C64.2669 103.399 63.8432 104.436 62.927 105.386L64.3667 106.774ZM66.2669 102.24V97.32H64.2669V102.24H66.2669ZM66.2669 97.32C66.2669 95.6634 65.5985 94.1833 64.3667 92.9059L62.927 94.2941C63.8553 95.2567 64.2669 96.2566 64.2669 97.32H66.2669ZM64.3797 92.9195C63.1698 91.6166 61.6921 90.92 59.9869 90.92V92.92C61.0816 92.92 62.044 93.3434 62.9141 94.2804L64.3797 92.9195ZM59.9869 90.92C58.2502 90.92 56.7503 91.6098 55.5341 92.9195L56.9997 94.2804C57.8635 93.3502 58.8436 92.92 59.9869 92.92V90.92ZM55.5466 92.9064C54.3411 94.1581 53.7069 95.6418 53.7069 97.32H55.7069C55.7069 96.1982 56.1126 95.2019 56.9872 94.2936L55.5466 92.9064ZM53.7069 97.32V102.24H55.7069V97.32H53.7069ZM88.3214 70.86L87.6706 70.1007L87.6566 70.1127L87.6431 70.1252L88.3214 70.86ZM112.441 73.44L111.778 74.1881L111.785 74.1941L112.441 73.44ZM112.261 94.32L111.615 93.5566L111.61 93.5616L112.261 94.32ZM95.3414 97.62V96.62H94.3414V97.62H95.3414ZM94.1414 113.34L93.6595 112.464L93.6499 112.469L93.6404 112.475L94.1414 113.34ZM95.3414 91.5H94.3414V92.5H95.3414V91.5ZM106.681 89.76L105.962 89.0654L105.956 89.0719L105.95 89.0786L106.681 89.76ZM106.681 78.72L105.95 79.4014L105.956 79.4081L105.962 79.4146L106.681 78.72ZM95.3414 76.98V75.98H94.3414V76.98H95.3414ZM88.5414 111.54V72.54H86.5414V111.54H88.5414ZM88.5414 72.54C88.5414 72.2103 88.6607 71.9077 88.9997 71.5948L87.6431 70.1252C86.9421 70.7723 86.5414 71.5897 86.5414 72.54H88.5414ZM88.9722 71.6193C89.3174 71.3234 89.7918 71.14 90.4814 71.14V69.14C89.411 69.14 88.4455 69.4366 87.6706 70.1007L88.9722 71.6193ZM90.4814 71.14H102.541V69.14H90.4814V71.14ZM102.541 71.14C106.479 71.14 109.522 72.1871 111.778 74.1881L113.105 72.6919C110.401 70.2929 106.844 69.14 102.541 69.14V71.14ZM111.785 74.1941C113.968 76.0961 115.161 79.1662 115.161 83.64H117.161C117.161 78.8338 115.874 75.1039 113.098 72.6859L111.785 74.1941ZM115.161 83.64V84H117.161V83.64H115.161ZM115.161 84C115.161 88.5014 113.916 91.6104 111.615 93.5566L112.907 95.0834C115.807 92.6296 117.161 88.8586 117.161 84H115.161ZM111.61 93.5616C109.274 95.569 106.125 96.62 102.061 96.62V98.62C106.477 98.62 110.129 97.471 112.913 95.0784L111.61 93.5616ZM102.061 96.62H95.3414V98.62H102.061V96.62ZM94.3414 97.62V111.54H96.3414V97.62H94.3414ZM94.3414 111.54C94.3414 111.855 94.2166 112.157 93.6595 112.464L94.6233 114.216C95.6662 113.643 96.3414 112.745 96.3414 111.54H94.3414ZM93.6404 112.475C93.0586 112.811 92.3381 113 91.4414 113V115C92.6248 115 93.7043 114.749 94.6424 114.205L93.6404 112.475ZM91.4414 113C90.4972 113 89.7588 112.808 89.1824 112.475L88.1804 114.205C89.124 114.752 90.2256 115 91.4414 115V113ZM89.1824 112.475C88.6739 112.18 88.5414 111.882 88.5414 111.54H86.5414C86.5414 112.718 87.1689 113.62 88.1804 114.205L89.1824 112.475ZM95.3414 92.5H102.061V90.5H95.3414V92.5ZM102.061 92.5C104.262 92.5 106.097 91.8551 107.413 90.4414L105.95 89.0786C105.106 89.9849 103.861 90.5 102.061 90.5V92.5ZM107.401 90.4546C108.764 89.0428 109.361 87.0312 109.361 84.6H107.361C107.361 86.7288 106.839 88.1572 105.962 89.0654L107.401 90.4546ZM109.361 84.6V83.88H107.361V84.6H109.361ZM109.361 83.88C109.361 81.4488 108.764 79.4372 107.401 78.0254L105.962 79.4146C106.839 80.3228 107.361 81.7512 107.361 83.88H109.361ZM107.413 78.0386C106.097 76.6249 104.262 75.98 102.061 75.98V77.98C103.861 77.98 105.106 78.4951 105.95 79.4014L107.413 78.0386ZM102.061 75.98H95.3414V77.98H102.061V75.98ZM94.3414 76.98V91.5H96.3414V76.98H94.3414ZM119.387 86.28L118.842 85.4416L118.832 85.448L118.822 85.4547L119.387 86.28ZM124.787 86.28L124.222 87.1053L124.232 87.112L124.242 87.1184L124.787 86.28ZM127.547 106.14L126.814 106.82L126.82 106.827L126.827 106.834L127.547 106.14ZM134.927 106.14L134.194 105.46L134.193 105.461L134.927 106.14ZM137.627 86.22L137.112 85.3625L137.103 85.3684L137.093 85.3745L137.627 86.22ZM143.147 86.22L142.592 87.052V87.052L143.147 86.22ZM140.387 110.88L141.077 111.604L140.387 110.88ZM122.087 110.88L121.397 111.604L121.403 111.609L122.087 110.88ZM119.247 102.36V87.96H117.247V102.36H119.247ZM119.247 87.96C119.247 87.8393 119.312 87.543 119.952 87.1053L118.822 85.4547C117.942 86.057 117.247 86.8807 117.247 87.96H119.247ZM119.932 87.1184C120.555 86.7133 121.282 86.5 122.147 86.5V84.5C120.932 84.5 119.819 84.8067 118.842 85.4416L119.932 87.1184ZM122.147 86.5C122.963 86.5 123.643 86.7089 124.222 87.1053L125.352 85.4547C124.411 84.8111 123.33 84.5 122.147 84.5V86.5ZM124.242 87.1184C124.932 87.567 124.987 87.8635 124.987 87.96H126.987C126.987 86.8565 126.242 86.033 125.332 85.4416L124.242 87.1184ZM124.987 87.96V102.36H126.987V87.96H124.987ZM124.987 102.36C124.987 104.037 125.619 105.534 126.814 106.82L128.28 105.46C127.394 104.506 126.987 103.483 126.987 102.36H124.987ZM126.827 106.834C128.046 108.1 129.543 108.76 131.267 108.76V106.76C130.111 106.76 129.127 106.34 128.267 105.446L126.827 106.834ZM131.267 108.76C132.992 108.76 134.476 108.099 135.661 106.819L134.193 105.461C133.378 106.341 132.421 106.76 131.267 106.76V108.76ZM135.66 106.82C136.854 105.534 137.487 104.037 137.487 102.36H135.487C135.487 103.483 135.079 104.506 134.194 105.46L135.66 106.82ZM137.487 102.36V87.9H135.487V102.36H137.487ZM137.487 87.9C137.487 87.7319 137.562 87.4436 138.161 87.0655L137.093 85.3745C136.172 85.9564 135.487 86.7881 135.487 87.9H137.487ZM138.141 87.0775C138.769 86.7011 139.507 86.5 140.387 86.5V84.5C139.187 84.5 138.085 84.7789 137.112 85.3625L138.141 87.0775ZM140.387 86.5C141.367 86.5 142.079 86.7096 142.592 87.052L143.702 85.3879C142.775 84.7704 141.647 84.5 140.387 84.5V86.5ZM142.592 87.052C143.142 87.4186 143.227 87.7061 143.227 87.9H145.227C145.227 86.8139 144.592 85.9814 143.702 85.3879L142.592 87.052ZM143.227 87.9V102.36H145.227V87.9H143.227ZM143.227 102.36C143.227 105.3 142.079 107.886 139.697 110.156L141.077 111.604C143.815 108.994 145.227 105.9 145.227 102.36H143.227ZM139.697 110.156C137.322 112.42 134.529 113.54 131.267 113.54V115.54C135.045 115.54 138.332 114.22 141.077 111.604L139.697 110.156ZM131.267 113.54C128.005 113.54 125.188 112.419 122.771 110.151L121.403 111.609C124.185 114.221 127.489 115.54 131.267 115.54V113.54ZM122.777 110.156C120.395 107.886 119.247 105.3 119.247 102.36H117.247C117.247 105.9 118.659 108.994 121.397 111.604L122.777 110.156ZM149.592 86.16L149.07 85.3067L149.059 85.3134L149.048 85.3204L149.592 86.16ZM154.812 86.16L154.268 86.9996L154.812 86.16ZM155.832 89.7H154.832V93.3429L156.692 90.2105L155.832 89.7ZM159.072 86.46L158.55 85.6066L158.54 85.6134L159.072 86.46ZM171.552 88.74L170.796 89.395L170.802 89.4012L171.552 88.74ZM171.492 110.82L170.732 110.17L171.492 110.82ZM159.372 113.16L158.817 113.992L158.83 114.001L158.844 114.009L159.372 113.16ZM156.312 109.8L157.217 109.376L155.312 109.8H156.312ZM155.112 126.48L154.597 125.623L154.572 125.638L154.547 125.655L155.112 126.48ZM149.652 126.48L150.237 125.669L150.222 125.658L150.206 125.648L149.652 126.48ZM157.932 106.14L158.639 105.433L157.932 106.14ZM165.312 106.08L166.032 106.774L166.038 106.768L166.044 106.761L165.312 106.08ZM165.312 93.6L164.592 94.2941L164.598 94.3007L164.605 94.3071L165.312 93.6ZM157.872 93.42L158.565 94.1408L157.872 93.42ZM149.572 124.8V87.9H147.572V124.8H149.572ZM149.572 87.9C149.572 87.5663 149.698 87.2824 150.135 86.9996L149.048 85.3204C148.126 85.9176 147.572 86.7937 147.572 87.9H149.572ZM150.113 87.0133C150.643 86.6893 151.333 86.5 152.232 86.5V84.5C151.05 84.5 149.98 84.7507 149.07 85.3067L150.113 87.0133ZM152.232 86.5C153.133 86.5 153.79 86.6903 154.268 86.9996L155.355 85.3204C154.473 84.7497 153.41 84.5 152.232 84.5V86.5ZM154.268 86.9996C154.706 87.2824 154.832 87.5663 154.832 87.9H156.832C156.832 86.7937 156.278 85.9176 155.355 85.3204L154.268 86.9996ZM154.832 87.9V89.7H156.832V87.9H154.832ZM156.692 90.2105C157.362 89.0815 158.323 88.1117 159.604 87.3066L158.54 85.6134C157.02 86.5683 155.822 87.7585 154.972 89.1895L156.692 90.2105ZM159.593 87.3133C160.866 86.5357 162.303 86.14 163.932 86.14V84.14C161.96 84.14 160.158 84.6243 158.55 85.6067L159.593 87.3133ZM163.932 86.14C166.623 86.14 168.893 87.1995 170.796 89.3949L172.307 88.0851C170.05 85.4805 167.241 84.14 163.932 84.14V86.14ZM170.802 89.4012C172.709 91.5655 173.672 94.1854 173.672 97.32H175.672C175.672 93.7346 174.554 90.6345 172.302 88.0788L170.802 89.4012ZM173.672 97.32V102.24H175.672V97.32H173.672ZM173.672 102.24C173.672 105.24 172.698 107.87 170.732 110.17L172.252 111.47C174.525 108.81 175.672 105.72 175.672 102.24H173.672ZM170.732 110.17C168.763 112.473 166.585 113.54 164.172 113.54V115.54C167.278 115.54 169.98 114.127 172.252 111.47L170.732 110.17ZM164.172 113.54C162.641 113.54 161.223 113.134 159.9 112.311L158.844 114.009C160.48 115.026 162.263 115.54 164.172 115.54V113.54ZM159.926 112.328C158.604 111.447 157.724 110.457 157.217 109.376L155.406 110.224C156.099 111.703 157.259 112.953 158.817 113.992L159.926 112.328ZM155.312 109.8V124.8H157.312V109.8H155.312ZM155.312 124.8C155.312 124.943 155.247 125.233 154.597 125.623L155.626 127.337C156.577 126.767 157.312 125.937 157.312 124.8H155.312ZM154.547 125.655C153.981 126.042 153.266 126.26 152.352 126.26V128.26C153.598 128.26 154.723 127.958 155.676 127.305L154.547 125.655ZM152.352 126.26C151.436 126.26 150.753 126.042 150.237 125.669L149.066 127.291C149.991 127.958 151.108 128.26 152.352 128.26V126.26ZM150.206 125.648C149.657 125.281 149.572 124.994 149.572 124.8H147.572C147.572 125.886 148.207 126.719 149.097 127.312L150.206 125.648ZM155.312 103.32C155.312 104.542 156.108 105.731 157.225 106.847L158.639 105.433C157.595 104.389 157.312 103.698 157.312 103.32H155.312ZM157.225 106.847C158.467 108.089 159.933 108.76 161.592 108.76V106.76C160.531 106.76 159.556 106.351 158.639 105.433L157.225 106.847ZM161.592 108.76C163.295 108.76 164.786 108.066 166.032 106.774L164.592 105.386C163.677 106.334 162.689 106.76 161.592 106.76V108.76ZM166.044 106.761C167.271 105.443 167.932 103.927 167.932 102.24H165.932C165.932 103.353 165.512 104.397 164.58 105.399L166.044 106.761ZM167.932 102.24V97.32H165.932V102.24H167.932ZM167.932 97.32C167.932 95.6293 167.268 94.1416 166.019 92.8929L164.605 94.3071C165.516 95.2184 165.932 96.2107 165.932 97.32H167.932ZM166.032 92.9059C164.774 91.6016 163.238 90.92 161.472 90.92V92.92C162.665 92.92 163.69 93.3584 164.592 94.2941L166.032 92.9059ZM161.472 90.92C159.836 90.92 158.392 91.5321 157.179 92.6992L158.565 94.1408C159.431 93.3079 160.387 92.92 161.472 92.92V90.92ZM157.179 92.6992C155.92 93.9092 155.312 95.4807 155.312 97.32H157.312C157.312 95.9593 157.743 94.9308 158.565 94.1408L157.179 92.6992ZM155.312 97.32V103.32H157.312V97.32H155.312Z" fill="#F8D59B"/>
</svg>
