<svg xmlns="http://www.w3.org/2000/svg" viewBox="0 0 985.51 1270.77"><defs><style>.cls-1{fill:#ff7400;}.cls-2{fill:#343434;}</style></defs><g id="Layer_2" data-name="Layer 2"><g id="Layer_1-2" data-name="Layer 1"><path class="cls-1" d="M593.63,334.92c5,7.83,11.41,18.23,19.76,22.74a1.88,1.88,0,0,0,1.43.18c1.27.79,3.14.56,3.5-1.33q2.89-14.88,5.65-29.8c.89-4.81,2-9.65,2.64-14.5.42-3.14.34-6.31-1.87-8.78-5-5.61-11,.21-13.53,4.94A56.9,56.9,0,0,0,605.39,325c-1.53-3-3-5.94-4.57-8.9-2.34-4.49-4.43-9.68-7.53-13.69-5.12-6.63-14.49-3.39-12.56,5.31C582.83,317.2,588.47,326.85,593.63,334.92ZM590,306.83c1.31,1.5,2.08,4.15,3,5.94,3.82,7.72,7.75,15.4,11.71,23.05,1.32,2.53,5.22,1.27,5.23-1.41a49.93,49.93,0,0,1,3.49-18.15c.46-1.16,3.22-8.85,5-9,2.46-2.14,3.25-.94,3.22,1.88a9.16,9.16,0,0,1-.19,2.39c-.21,1.77-.61,3.52-.93,5.28-2.14,11.76-4.27,23.53-6.31,35.31-3.54-5.07-8.32-9.48-11.9-14.48A134.17,134.17,0,0,1,590.9,318.4a85.74,85.74,0,0,1-4.43-10.29,11.89,11.89,0,0,1-.76-2.94C588,304.47,589.36,305,590,306.83Z"/><path class="cls-2" d="M386.14,1157.49q-.9-23.74-.81-47.52c.09-31.41,1.29-62.81,3.09-94.16q1.35-23.37,3.07-46.71-7.73-8.37-15.49-16.7c-22.13-23.66-44.43-47.16-66.57-70.81-12.05-12.86-24.54-25.39-36.8-38.11q3.63,80.17,7.24,160.34,2,44.05,4,88.09c.63,14.08,1.51,28.56-2.21,42.32-3.53,13-11.86,23.59-19,34.79-6.91,10.83-13.29,23.68-11.4,36.93,1.47,10.33,7.92,20,18,23.24-1.16-5-.82-10.85-.18-15.2a43.47,43.47,0,0,1,8.78-20.46c1.56-2,5-.2,3.55,2.07a45.46,45.46,0,0,0-7,19.11,44.65,44.65,0,0,0-.18,9.46,45.11,45.11,0,0,0,.88,5,20.38,20.38,0,0,0,10.64,2.32c3.14,0,6.29-.21,9.44-.42a40.22,40.22,0,0,1-1.34-11.06,35.74,35.74,0,0,1,6.11-20.06,3,3,0,0,1,5.12,3,39,39,0,0,0-3.88,17.79,40.34,40.34,0,0,0,2,9.7c9.33-.88,18.68-2.1,27.93-2.94l23.48-2.13c5.79-.53,11.72-1,17.16-3.2,10.21-4.09,14.66-13.53,15.69-24C388.78,1184.8,386.64,1170.89,386.14,1157.49Zm-61.37-114.64.62.8-.83,1.53C324.63,1044.4,324.69,1043.63,324.77,1042.85Zm-7.63-49.56-1.7-2.08c0-1.82,0-3.64-.05-5.45Q316.26,989.53,317.14,993.29Zm-9.54,101.38q-.33-5.54-.21-11.1a4.93,4.93,0,0,0,4.3-1.38c.08,2.43.22,4.85.38,7.27C310.67,1091.22,309.19,1093,307.6,1094.67Zm7-84c0-.21,0-.43.05-.64l.83,1.13c.56.87,1.12,1.73,1.66,2.61-.68-.86-1.37-1.71-2-2.56A6.43,6.43,0,0,0,314.61,1010.69Zm1.73,24.37c0-1,0-2,0-3l1.65,2.12A6.57,6.57,0,0,0,316.34,1035.06Zm12.05,104a39.31,39.31,0,0,1-7-5.88,7.14,7.14,0,0,0,7.08-.6,7.52,7.52,0,0,0,6,5.14A4.52,4.52,0,0,1,328.39,1139.05Zm19.27-120.56a102.23,102.23,0,0,1,1.14,10.68c-.89-3.46-1.89-6.89-3-10.26A7.44,7.44,0,0,0,347.66,1018.49Zm3.59,35c-.94-2.29-1.91-4.57-2.91-6.82,0-1.25-.09-2.5-.14-3.76a6.28,6.28,0,0,0,1.95-2.71A48.88,48.88,0,0,1,351.25,1053.5Z"/><path class="cls-2" d="M983.65,1006.54c-1.89-28.81-5.59-57.59-12.24-85.72a353.56,353.56,0,0,0-20.06-60.59q-2.36-6-5-12c-18-39.69-44-75.78-70-110.57A1208.08,1208.08,0,0,0,705.57,552.85l-2.78-2.24c-10.32-8.22-20.87-16.11-30.68-24.93q-16.47,29.75-33,59.49c-10.87,19.6-21.44,39.43-33.34,58.43-23.62,37.73-55.39,69.16-85.6,101.54-4.47,4.78-8.84,9.67-13.41,14.35-1.84,1.88-3.92,4.11-6.61,4.7-4.58,1-6.47-2.92-5.11-6.91,1.95-5.65,6-11.12,9.12-16.17s6.66-10.23,10.23-15.19a2.17,2.17,0,0,0,.4-1c1.16-2.26-2.53-4.24-4.18-2A178.06,178.06,0,0,1,454,773.28c-2.35,1.32-5.08,3.32-7.7,4-6.73,1.75-5.36-5.1-2.7-8.31,4.59-5.56,10.64-10.26,15.8-15.29Q474.5,739,489,723.59c1-1.22,2-2.46,3-3.74,1.18-1.56,9.62-14.08,3.7-12.74-3.36.76-6.41,4.53-9,6.63-4,3.25-8.31,6.1-12.56,9-1,.67-2,1.31-3.06,1.94l-5.3,3.8c-7.14,5.07-14.14,10.3-21.79,14.51-9.42,6.09-19.74,12-30.32,15.49-1.08.36-3.16,1.18-4.27.82-5.24-1.7-1.25-6.14.48-8,2.71-3,5.94-5.6,8.88-8.34l17.19-16,36.69-34.21a7.5,7.5,0,0,0,.86-2.69,2.1,2.1,0,0,0-.22-.42,2.56,2.56,0,0,0,.22-.39,3.47,3.47,0,0,0-.21-.9c-.67-1.68-1.95-2-3.51-1.67l-.14.1a419.53,419.53,0,0,1-57,41.42q-7.17,4.32-14.5,8.36c-3.81,2.1-14.06,9.37-17.72,3.45-3-4.81,4.6-11,7.61-13.89a152.3,152.3,0,0,1,12.06-10.18c14.64-11.19,30.71-20.5,44.48-32.82,6.71-6,13.2-12.9,17.74-20.75a23,23,0,0,0,1.49-3,8.21,8.21,0,0,0,.3-3.6c-.63-3.48-4.45-5.12-7.51-4.16-3.64,1.15-6.85,3.6-10.14,5.47a239.05,239.05,0,0,1-23.17,11.11c-7.07,3.07-14.3,5.73-21.36,8.81-4.83,2.1-12.39,5.67-17.12,1.43-5.57-5,1.46-10.35,5.26-13.38,3.07-2.44,6.24-4.73,9.45-7,12.91-10.6,27.21-19.52,40.95-29.08a463.59,463.59,0,0,0,51.14-41.25A471,471,0,0,0,573.8,486.29,467.11,467.11,0,0,0,607,419.51a1.78,1.78,0,0,0-.4-2.11,1,1,0,0,0,0-.17c-5.48-15.18-14.15-28.72-23.85-41.52-10.44-13.78-21.52-27.09-32.36-40.56-5.84-7.27-11.84-14.43-17.51-21.83-2.78-3.64-5.13-7.42-6.08-12-.88-4.24-.87-8.67-1.45-13-2.45-18-9.19-35.41-14.7-52.66L495.41,188.2c-6.37,2.68-12.73,5.21-18.85,7.79a206.75,206.75,0,0,0-39,21.09c-11.75,8.22-22.59,17.62-34,26.25-8.75,6.59-21.59,18-33,10.4-9.29-6.24-11.5-21.18-14.4-31-3-10.09-5.71-20.26-7.95-30.54a1.22,1.22,0,0,1-.33-.47,32.38,32.38,0,0,1-1.67-9.55c-.27-1.48-.54-3-.78-4.45-2.49-15.18-3.06-30.29-3-45.65.07-15.83-1-31.22-4.55-46.69-3.44-15-8.69-29.35-12.94-44.07-.65-2.24,2.6-3,3.41-.94a312,312,0,0,1,14.21,46.41c3.5,15.91,4.31,31.77,4.35,48q0,4.78.16,9.53c-.18,4.57-.14,9.15.1,13.71a139.62,139.62,0,0,0,3,22.21,83.66,83.66,0,0,0,3,11.62c2.19,9.65,4.8,19.21,7.6,28.69,1.95,6.62,3.68,13.45,6.23,19.86,2,5.09,5.4,10.88,11.58,10.95,7.23.08,14.2-6.51,19.58-10.64s10.91-8.59,16.33-12.92C425,219.37,435.6,211,447.37,204.41s23.8-11.74,35.94-17.19c3.45-1.56,6.88-3.11,10.29-4.69,0-.13-.08-.26-.13-.39a103.66,103.66,0,0,0,9-7c9.45-8.26,11.77-18.74,9.87-30.86-2.19-14-5.46-28-8.77-41.77a308.36,308.36,0,0,0-12.88-41.95c-4.26-10.73-9.1-22.31-18.16-29.94-9.36-7.89-21.19-8.29-32.86-8.17-6.22.07-12.55.16-18.61-1.28,3.13,9.05,4.2,18.7,2.15,28-.22,1-1.67.71-1.74-.23-.69-10.34-2.3-20.25-5.72-29.46-6.56-2.68-12.4-6.89-19.17-9.13C381.89,5.48,366,9.09,351.35,12.58,322.77,7.17,294,2.33,265,.72,247.87-.23,230.06-.65,213.1,2.1c-15.38,2.5-26.46,11.53-37,22.47a479.12,479.12,0,0,0-37.26,44,2.58,2.58,0,0,0-.28.46Q86,82.36,34.46,99.37c-2.07.69-4.23,1.34-6.42,2l3.2,1.56a29.39,29.39,0,0,1,11,8.59c7,9.49.1,19.41-4.19,28.49-1.83,3.88-3.44,8.67-6.52,11.88,3.75,7.06,5.94,15.49,8.68,22.91,3.19,8.6,6.35,17.21,9.58,25.8,9.46,8,18.85,16,28.12,24.24,4.72,4.19,9.43,8.39,14.17,12.55,4.53,4,9.34,7.84,15.49,8.72,5.92.85,12.12-.73,18-1.28a97.75,97.75,0,0,1,16.41-.15,91.16,91.16,0,0,1,16,2.72c1.5.39,3.16.75,4.82,1.2-4.16-.25-8.32-.46-12.49-.52a180.67,180.67,0,0,0-30.59,2.06c-6,.49-12,.58-17.59-1.51-4.63-1.73-8.48-4.88-12.23-8-4.81-4-9.56-8.11-14.35-12.17q-14.08-12-27.87-24.26A99.13,99.13,0,0,0,35.37,217c-1.35,1.65-2.64,3.36-3.89,5.1,12,25.8,38.11,40,63.47,50.12,28.72,11.49,57.85,22,86.83,32.88a64.52,64.52,0,0,1,9.08,31.73,62.57,62.57,0,0,1-2.54,18.9c-1.63,5.51-4.3,11.18-3.07,17.05,1.15,5.45,5.58,8.87,10.26,11.32,5.7,3,11.69,5.49,17.64,7.91A279.34,279.34,0,0,0,253.49,405c54.74,13.13,112.36,10.06,166.25-5.53a388.17,388.17,0,0,0,44.67-16C479.39,377,494.15,370,510,366c4,3.59-10.83,15.78-13.27,17.9a151.07,151.07,0,0,1-18.21,13.51,179.26,179.26,0,0,1-18.3,9.89c-3.85,1.85-8.14,5.33-6.43,10.18,1.86,5.28,8.57,3.79,12.82,3.33,7.75-.82,15.44-2.11,23.11-3.47,8-1.44,16.06-3,24.15-4.13s16.69-2.47,24.8-1.79a6,6,0,0,1,2.16.35c.57.31,2.35,2.49,2.21,3.31-.25,1.57-3.31,2.81-4.62,3.5a98.74,98.74,0,0,1-11.28,4.89c-7.09,2.62-14.38,4.63-21.68,6.55s-14.7,3.75-21.94,6c-5,1.54-13,2.94-16.65,7.08-2.83,3.21-2,8.15,2.22,9.53,2.56.84,5.67.11,8.24-.21,3.87-.49,7.71-1.12,11.54-1.84,15.62-3,31.08-7.43,47-8a65,65,0,0,1,13.15.54c1.53.26,4.84.86,5.49,2.55a4,4,0,0,1,.24,1.91c-4.19,4.36-9.79,7.14-15.28,9.7A223.68,223.68,0,0,1,514.94,467a232.26,232.26,0,0,1-24.47,6.56c-5.91,1.23-13.89,1.1-18,6.19a.53.53,0,0,0-.06.1,2.31,2.31,0,0,0,1.35,4.15,196.66,196.66,0,0,0,30.15-2.89c10.6-1.84,21.23-4.33,32.06-3.87,2.28.1,4.9.12,7,1,4.48,1.8,3.08,5.68.22,8-3.6,2.94-8.11,5.07-12.29,7.06-1.87.88-3.77,1.69-5.69,2.45A167.3,167.3,0,0,1,503.1,501c-9,1.47-18.06,3.05-27.1,4.49-3.69.58-7.36,1.05-11.07,1.32l-1.66.37c-1.51.36-5.38,1.41-5,3.6.11.71.8,1.31,1.67,1.82l35.71,1.28c3.49.12,17.54-1.17,14.41,5.44-2.34,4.95-13.22,4.24-17.8,4.69-23.49,2.33-47.06,3.78-70.64,4.56-47.85,1.56-95.75.35-143.56-1.85-27.26-1.26-54.5-2.85-81.74-4.43a1.93,1.93,0,0,0-1.88.91,2,2,0,0,0-1.3,2.06c5.35,99.67,11.61,204.57,65,292q3.33,5.45,6.91,10.74c6.56,6.57,13,13.27,19.47,19.92,22.81,23.42,45.63,46.85,67.82,70.85q16.5,17.85,32.85,35.83,8.49,9.32,17,18.63c.25.27.49.55.73.82,10.1,10.07,19.92,20.42,29.23,31.21a269.81,269.81,0,0,0,0-27.28c-1.83-38.19-9.18-75.54-14.84-113.26-3-20-6.25-40.2-13.25-58.95a208.89,208.89,0,0,0-11.95-32c11.55,13,18.5,29.53,23.07,46.18,4.52,16.45,6.85,33.36,9.37,50.19,3,19.87,5.23,39.82,8.14,59.69,2.78,18.92,5.37,37.72,5.66,56.89a244.73,244.73,0,0,1-.82,24.82,2.09,2.09,0,0,0,.14.17l3.12,28.67q.21,33,.4,65.9c.1,17.37,1.5,36.11-6.36,52.17-6.81,13.9-18.85,25.41-20.87,41.38-.05.41-.09.83-.12,1.25l0,.41c0,.28,0,.56,0,.85v.49q0,.39,0,.78c0,.17,0,.34,0,.51s0,.51,0,.77,0,.34,0,.51.05.52.08.78l.06.49c0,.28.08.56.12.84s0,.28.07.42q.11.62.24,1.23h0c.1.42.2.83.31,1.23,0,.14.08.27.11.4s.16.55.25.82l.15.46c.09.25.17.5.26.74l.18.48.29.71c.07.15.13.31.2.47l.33.7.21.44c.12.25.25.49.39.74s.12.25.19.37c.2.35.41.7.62,1v0q.33.52.69,1c.07.12.16.22.23.33s.33.45.5.66.2.25.3.38l.47.57.34.38.49.53.35.35.54.51.35.32c.2.18.4.35.61.51l.31.26c.3.24.61.46.93.68l0,0c.33.23.66.44,1,.64l.34.2.71.38.42.21c.22.1.44.21.67.3l.46.19.67.25.48.16c.23.08.47.14.71.21s.31.09.47.12.53.12.8.17l.42.08c.39.07.78.12,1.18.16h.07a18.13,18.13,0,0,0,1.9,2.93l16.37-4.09c0-.25,0-.5-.05-.75l-6.24,2.05h0l6.24-2.05a63.7,63.7,0,0,1,4.42-26.6c1-2.66,5.26-1.58,4.33,1.19a68.67,68.67,0,0,0-3.27,24.81q9-2.25,18.06-4.47c5.66-1.38,11.32-2.81,17-4.24a48.33,48.33,0,0,1-1-7.09,51,51,0,0,1,.42-12c.4-3.11,5.26-3.27,5,0-.3,3.88-.22,7.73-.21,11.61,0,2.05.38,4.16.51,6.24,18.25-4.6,36.55-9.16,55-12.45-.25-7.37,1-14.76,1.53-22.12.54-7.11.8-14.23.93-21.36.26-14.3.51-28.58.34-42.89-.62-51-3.11-102.1,5.53-152.6,4.4-25.75,8.21-51.45,5.36-77.62-2.79-25.65-10.27-51-16.73-75.9a1.49,1.49,0,0,1,2.87-.79C560,836.79,568,864.17,571.36,893A168.47,168.47,0,0,1,572,930.9c-1.36,12.87-3.79,25.58-5.92,38.33a501.73,501.73,0,0,0-6.66,79c-.17,20.24.26,40.48.47,60.72a2.55,2.55,0,0,1,.39,0c0-.62,0-1.24,0-1.85q15.43,12.18,32,22.79c7-2,14.22-3.31,21-5.73s13.89-6.2,18.13-12.35c4.81-7,4.86-15.36,3.35-23.41-2.66-14.17-8.71-27.77-12.75-41.59q-6.45-22.11-10.86-44.75c-5.61-28.85-9.64-59.89-.91-88.55,7.65-25.08,23.68-46.91,42.83-64.51a243.45,243.45,0,0,1,34-25.76c11.63-7.42,23.58-14.84,36.85-18.79l-2.56,1.7c-5.78,3.77-11.4,7.79-17,11.79-7.34,5.21-14.66,10.47-21.8,16a203.33,203.33,0,0,0-34.17,28.52c-19.3,20.42-32.25,46.07-34.76,74.21-2.7,30.42,3.71,62,10.89,91.47,3.52,14.45,8.23,28.46,12.52,42.68,3.68,12.23,6.74,25.56,1.77,37.9a30.28,30.28,0,0,1-6.88,10.38,201.53,201.53,0,0,1-24.3,11,220,220,0,0,1-24.2,7.4c-4.35,1.07-8.75,1.91-13.12,2.87-3.18.7-7.46.58-9.13,3.76a2.35,2.35,0,0,0-.15.42l-1.18.3c-.15,7.15-.43,14.3-.92,21.44-.79,11.61-.72,24.37-4,35.67a249.24,249.24,0,0,1,34.66-3.89c12.64-.36,25.17,1,37.68,2.68,12.89,1.73,25.67,3.12,38.47,3.71,10.6,1.4,22.15-1.09,32.54-2.73q17.63-2.79,35-6.93t34.34-9.62c6.83-2.21,14.1-4.46,20.76-7.65l1-.21A187.29,187.29,0,0,0,831.84,1148c19.94-18.35,34.63-41.34,46-65.8.42-.9,1.74-.23,1.54.65-6.29,27.38-22.86,51.42-43.3,70.35a152.82,152.82,0,0,1-48.1,30.5q-4.07,2.12-8.22,4a2.2,2.2,0,0,1-.26.15l-1,.41q-2.16,1-4.35,1.92c-3,1.29-6,2.48-9.08,3.6a250.46,250.46,0,0,1-65.67,15.68c-24.88,2.38-49.06-.08-73.71-3.43-13.78-1.87-27.58-3.16-41.5-2.41-13.41.72-26.54,3-39.64,5.81-12,2.58-24,5.38-35.92,8.26q-12.65,2.1-25.22,4.61-24.56,4.93-48.75,11.44c-7.93,2.13-15.82,4.39-23.57,7.08l-1.63.54c-6,1.45-12,2.79-18.09,3.71-4.95,1.72-12.07,5-11.11,11.36.59,4,4.33,6.93,7.9,6.29l.29,0c97.47,2.43,194.93,5.09,292.41,7.29,47.53,1.08,95.33,1.46,142.61-4.35,38.69-4.76,79-14.82,107.73-42.8a139.77,139.77,0,0,0,26.23-35.72c17.06-26.66,24.71-60.27,26.83-91.47C986.33,1066.18,985.6,1036.14,983.65,1006.54ZM451.45,116a6.34,6.34,0,0,0,2-1.51q-.19,1.34-.42,2.67c-.86.08-1.72.18-2.59.3l-.44-.72Zm-17.72,16.17c-.32,1.87-.73,3.72-1.21,5.56-.39,0-.79.07-1.19.08-.8-1.4-1.59-2.81-2.34-4.23Q431.36,132.95,433.73,132.21Zm-13.55-28.74a4.82,4.82,0,0,1,1.35,1.48c-.8.92-1.58,1.87-2.32,2.85-.52-1.81-1-3.62-1.52-5.45l-.06-.17A9.15,9.15,0,0,1,420.18,103.47ZM415,136.3c.08.76.15,1.52.22,2.28,0,.22,0,.44,0,.67-.28-1-.56-1.94-.83-2.91ZM224.74,268.64c-.74-1.65-1.44-3.32-2.11-5a3.46,3.46,0,0,0,1.25-1.13c1-1.54,1.87-2,2.61-3.45C225.91,262.26,225.32,265.45,224.74,268.64Zm21-183.84c-3.19-.81-6-2.76-8.95-4.2l0,0a1.87,1.87,0,0,1-1.53-.06l-1.48-.63a22.92,22.92,0,0,0-8.95-1.48,2.36,2.36,0,0,1-2.17,1.26,40.69,40.69,0,0,0-9,.78c-3.23,1-6.39,2.21-9.42,3.35a2,2,0,0,1-1.89-.18,101.35,101.35,0,0,1-6.22,9.32,1.45,1.45,0,0,1-2.5-1.46,146.62,146.62,0,0,1,8.85-16.77c1-1.72,2.25-4.83,3.92-7.09l-.05,0a1.36,1.36,0,0,1,.73-2.62l1.69.43a3.82,3.82,0,0,1,.86-.36c3.1-.81,7.63,2.17,10.67,3.8,2.58.9,5.13,1.91,7.67,3,3.4,1.51,6.71,3.22,10,4.91,3.16,1.61,6.65,3,9.24,5.4A1.57,1.57,0,0,1,245.72,84.8Zm3.2,124.37.93-5.14a40.45,40.45,0,0,1,2.91,3.94A5.77,5.77,0,0,0,248.92,209.17Zm8.69,59-1.9-6.91c.79,2.05,1.62,4.14,2.49,6.25Zm6.66,24.15c-.27-1-.54-2-.82-3l-1.38-5,1.93-1.54c.19,2.24.35,4.47.47,6.71,0,.9.06,1.79.1,2.69Zm7.35-87.73a4.77,4.77,0,0,1,3.24-1.93l.09.44A32.89,32.89,0,0,1,271.62,204.54Zm14.95,60.24,1-.78q.56,2.75,1.12,5.49l-.27.7L287,267.73q-.22-1.44-.48-2.88Zm.36,35.42c.11-.39.2-.78.29-1.17l1.3-.52.39-.06.5.91C288.58,299.63,287.76,299.91,286.93,300.2Zm19-18.17q-1.55-7.2-3.12-14.4a29.43,29.43,0,0,0,.91-4.2q4.13,8.73,7.56,17.75Q308.59,281.51,305.92,282Zm-25,362,1.16,1.32a52.45,52.45,0,0,0-.66,6.43l-2.1-1.59Q280.07,647.14,280.9,644.07Zm-42.59,2.13a6.9,6.9,0,0,0-1.09.44,61.86,61.86,0,0,1,1.17-7.66,10,10,0,0,0,1.27-1.33Q238.9,641.91,238.31,646.2Zm10.95,28.92c.53,2,1.09,4,1.71,6q-2.66-1.92-5.34-3.82A5.75,5.75,0,0,0,249.26,675.12Zm-1.92,22.74c-.36-.89-.72-1.79-1.07-2.69q6.51,5.25,13.23,10.21-5.77-3.81-11.76-7.31C247.61,698,247.47,697.93,247.34,697.86Zm9.48,20.5,1.88,1.33a24.36,24.36,0,0,0,.91,3.75Q258.17,720.92,256.82,718.36Zm6.61-114.62c.5,1.3,1.06,2.6,1.67,3.89a6,6,0,0,0-2.48,2,6,6,0,0,0-1.27,0C262,607.66,262.71,605.7,263.43,603.74Zm2,129.16q-2.08-3.14-4-6.38a4.58,4.58,0,0,0,4.65.67C265.82,729.08,265.61,731,265.44,732.9Zm1.93-95c.49-2.23,1.07-4.44,1.72-6.63.11.1.21.21.31.32Q268.34,634.72,267.37,637.9Zm9.91,63.54c-.8-.66-1.6-1.32-2.41-2-.38-.8-.77-1.6-1.14-2.39h0c.19.64.38,1.28.58,1.92L273,697.94c0-1.54.07-3.07.13-4.6q4.74,5.6,9.25,11.37C280.66,703.63,279,702.55,277.28,701.44Zm-2.2-29.6c.28-1.94.59-3.87.92-5.81,2.54,2.72,5.06,5.46,7.5,8.26.57,1.62,1.12,3.23,1.63,4.83C281.74,676.76,278.4,674.32,275.08,671.84ZM293,756q-2.08-1.74-4.22-3.43.81-3.13,1.56-6.29c.87,1,1.74,1.91,2.59,2.89.29,1,.55,2,.79,3A4.53,4.53,0,0,1,293,756Zm25.18,24.73c-.58-.67-1.18-1.33-1.77-2l.16,0a6,6,0,0,0,2.38,0C318.67,779.42,318.42,780.06,318.13,780.69ZM317,760.08l2.23,1.5a6.66,6.66,0,0,0,.81.46c.14,1,.26,2,.34,3C319.23,763.37,318.1,761.72,317,760.08ZM497.77,956.21l2.73,9.37a79,79,0,0,0-5.15-7.36A25.79,25.79,0,0,1,497.77,956.21Zm-21.84,65.29c-.17-1.34-.31-2.68-.42-4l.69,1.38C476.1,1019.74,476,1020.62,475.93,1021.5Zm7.11-31c-1.73-1.22-3.43-2.46-5.1-3.75l-.1-.06a71.58,71.58,0,0,1,2.49-8.27c0,.32.07.64.13,1a6.09,6.09,0,0,0,4.43,4.43l.75.13C484.71,986.1,483.85,988.28,483,990.49Zm6.72,21.33-.32-.37c.22-1.28.47-2.54.75-3.8l.78.58c-.07.25-.13.49-.19.73C490.43,1009.92,490.1,1010.87,489.76,1011.82Zm1.89,44.9a3.56,3.56,0,0,1-1,.78c.33-2.4.72-4.82,1.14-7.24q1.47,1.11,3,2.19A34.6,34.6,0,0,1,491.65,1056.72Zm3.16-58.48-1.63-1c.42-1.2.87-2.38,1.35-3.55.47.54,1,1.06,1.44,1.55C495.58,996.22,495.19,997.23,494.81,998.24Zm11.85,36.26q-3.36-5.16-7-10.12c1-2.45,2.05-4.91,3-7.38a18.63,18.63,0,0,0,6.79,3A66.7,66.7,0,0,1,506.66,1034.5Zm0-28.51c.8-2.38,1.57-4.78,2.29-7.19.42,2.94.68,5.9.81,8.85A18.54,18.54,0,0,1,506.66,1006ZM641.6,757.1l-1.22.4c.8-2.67,1.6-5.35,2.39-8,.31-1,.61-2,.92-3.06l1-.51C643.64,749.64,642.63,753.38,641.6,757.1Zm4.53-16.68c-.19.75-.4,1.5-.61,2.25-.22-.07-.44-.13-.65-.21l2.54-8.53.41.14C647.25,736.19,646.69,738.3,646.13,740.42Zm-.19-63.63c1.62-.19,3.24-.49,4.85-.82-.62,1.32-1.24,2.64-1.84,4Q647.42,678.41,645.94,676.79Zm3.55,51-.32.27c.12-.39.24-.78.35-1.17.78-2.62,1.53-5.24,2.29-7.87C651,721.89,650.27,724.82,649.49,727.74ZM670,690.13c-2.56-3-7.46-3.7-10-.48l-.15-.12q1.21-4.77,2.42-9.55l1.67,1.42c2.11,1.77,4.18,3.58,6.25,5.39C670.12,687.9,670.05,689,670,690.13Zm9.24,48.64-.87,1.22q.93-5.19,1.67-10.43l1.47,8.08C680.73,738,680,738.41,679.22,738.77Zm12.39-52.52c.13,1,.25,2.09.35,3.14L690,687.58C690.54,687.12,691.07,686.68,691.61,686.25Zm.64,24.15-.21-.12c-.08.28-.17.56-.25.84-.32-1.73-.66-3.47-1-5.2l1.6,1.56C692.36,708.45,692.31,709.43,692.25,710.4Zm-10.79,303.93c-.19,1.08-.36,2.17-.52,3.25-.31-1-.61-2.05-.9-3.11.2-2.37.39-4.76.59-7.15.42,1.45.85,2.89,1.33,4.32C681.79,1012.54,681.61,1013.44,681.46,1014.33Zm19-78.28c.69,1.49,1.38,3,2.09,4.46-.24,1.52-.44,3-.62,4.56q-1.78-4.2-3.49-8.43A5,5,0,0,0,700.43,936.05Zm-4.32,46.65a132.6,132.6,0,0,0-4.71-15.09,14.66,14.66,0,0,0-.8-1.7c.28-.15.56-.3.85-.43-.06-3.21,0-6.42.2-9.64q3.42,8.79,7.57,17.35a10.3,10.3,0,0,0,1.55,8.62A11.13,11.13,0,0,0,696.11,982.7Zm8.64,35.78a38.54,38.54,0,0,1-2.26-3.92c-.81-1.61-1.55-3.26-2.25-4.94q-.43-6.48-1.38-12.89a4.85,4.85,0,0,1,1.2-1.7,1.83,1.83,0,0,1,.55-.34,9.72,9.72,0,0,1,1.56,2.68,42.32,42.32,0,0,1,2.17,6.29,6.48,6.48,0,0,0,1.83,9.53c.09.63.17,1.26.25,1.88C705.84,1016.2,705.28,1017.33,704.75,1018.48Zm.19-66.46c-.33-.74-.67-1.48-1-2.22.26-1.49.56-3,.91-4.48.61,1.22,1.24,2.44,1.86,3.66C706.12,950,705.53,951,704.94,952Zm8.58-22.61-1.23-2,4.21-3.07Q715,926.87,713.52,929.41Zm72.05-7.28a6.63,6.63,0,0,0-1.24.71q-1-1.47-2.13-2.91C783.34,920.63,784.46,921.37,785.57,922.13ZM704.72,726.92l.21-1.78.92,2.1Zm27,3.55A100.7,100.7,0,0,0,720,717.05c3.75,2.56,7.41,5.24,10.92,8.13A3.91,3.91,0,0,1,731.7,730.47Zm2.9,273.32a14.4,14.4,0,0,0-1.51-4.47l1.31-.81a48.59,48.59,0,0,1,.69,6Zm3,43.76a41.85,41.85,0,0,0,3.6-2.67,5.4,5.4,0,0,0,1,2.14c0,1.23,0,2.46,0,3.69Q739.89,1049.22,737.64,1047.55Zm7.69-67.86-.16.17-.24-.37L743.3,977q1.65-1.68,3.33-3.35c.33.7.64,1.41,1,2.12Q746.47,977.74,745.33,979.69Zm22-63.68a5.58,5.58,0,0,0-1,4.54c-.15.71-.28,1.42-.42,2.13-3.21-4.6-6.32-9.26-9.39-13.94l2-2a25.39,25.39,0,0,1,3.27,5.12,44.09,44.09,0,0,1,6.08,1.42Zm15.2,83.31c.14-.93.28-1.86.39-2.8a5.3,5.3,0,0,0-2-4.94,11.2,11.2,0,0,0,3.78-4.62,5.76,5.76,0,0,0,.92.86,7.13,7.13,0,0,0,.64,3Q784.53,995.11,782.57,999.32Zm15.33-65c-.93,3-1.86,5.89-2.78,8.84-.13-.35-.27-.69-.4-1,.07-4.1.26-8.21.54-12.32,1.12,1,2.2,2.07,3.22,3.12A8.91,8.91,0,0,0,797.9,934.37Zm10.41,18.31c.33-1.58.65-3.17,1-4.75A4.62,4.62,0,0,1,808.31,952.68Zm42.83,222.83c1.58-2.85,3.05-5.75,4.36-8.72q.9,5.1,2.12,10.09c.16,1.72.29,3.45.37,5.19-1.24,2.16-2.52,4.29-3.82,6.43A96,96,0,0,0,851.14,1175.51Zm6.75,18.53c-.1,1.59-.24,3.17-.4,4.75-.18-.36-.35-.71-.51-1q-1.15-2.1-2.13-4.27c-.08-.78-.18-1.56-.28-2.34,1.18-.6,2.34-1.22,3.5-1.87Q858,1191.67,857.89,1194ZM869,1154.27c-.31,1.82-.71,3.6-1.17,5.35-.44-1.74-.89-3.47-1.39-5.2a6.34,6.34,0,0,0-5.63-4.41C863.19,1146.65,869.89,1149.19,869,1154.27Zm7.27,34.15c-1.1-2.46-2.12-4.94-3-7.47-.15-.4-.29-.8-.43-1.21,1.42-1,2.84-2.09,4.24-3.16.12,3.71.2,7.41.23,11.12Zm12.16-49.86c0-3.47.2-6.94.55-10.41a5,5,0,0,1,1.68-3.34,7,7,0,0,0-.25,3.7,172.25,172.25,0,0,1,2.77,23.52Q890.87,1145.28,888.46,1138.56Zm33.67,25.62,0,0a54.94,54.94,0,0,0-.93-12.06,4.09,4.09,0,0,1,2,3.72A44.23,44.23,0,0,1,922.13,1164.18Zm50.41-209.71c-.66-5.41-1.35-10.8-2.11-16.18q1.61,8.18,2.91,16.42A1.91,1.91,0,0,0,972.54,954.47Z"/><path class="cls-2" d="M45.59,200.77q-4.62-12-9.34-23.94c-2.79-7.14-6.66-14.7-8.67-22.24-3.23,1.21-6.83.6-10.15-.76A67.32,67.32,0,0,1,.82,143.75L1.21,147a164.57,164.57,0,0,0,26.64,71.86c1.12-1.39,2.23-2.71,3.24-3.93A105.82,105.82,0,0,1,45.59,200.77Z"/><path class="cls-2" d="M207,75.66c-.09.19-.18.36-.25.49-.26.45-.53.9-.79,1.36A37,37,0,0,1,209.81,76c-.92-.08-1.86-.21-2.8-.38Z"/><path class="cls-2" d="M29.88,147.11c2.46-3.84,4.16-8.33,6.1-12.45,2.3-4.86,6-10.44,5.34-16-.53-4.76-4.5-8.1-8.43-10.34-3.36-1.91-7.44-3.16-11.14-4.89C11.67,106.93,2.37,112,.56,123.71a61.24,61.24,0,0,0-.33,13.75A109.17,109.17,0,0,0,14.9,147.58C20,150.51,26,153.22,29.88,147.11Z"/></g></g></svg>